<mxfile host="65bd71144e">
    <diagram id="YT_bnPxSa24XiOdMXYxl" name="Page-1">
        <mxGraphModel dx="1054" dy="767" grid="0" gridSize="10" guides="1" tooltips="1" connect="1" arrows="1" fold="1" page="1" pageScale="1" pageWidth="850" pageHeight="1100" background="#000000" math="0" shadow="0">
            <root>
                <mxCell id="0"/>
                <mxCell id="1" parent="0"/>
                <mxCell id="6" value="&lt;font style=&quot;font-size: 18px;&quot;&gt;User Input&lt;/font&gt;" style="swimlane;horizontal=0;whiteSpace=wrap;html=1;startSize=67;" vertex="1" parent="1">
                    <mxGeometry width="200" height="247" as="geometry"/>
                </mxCell>
                <mxCell id="7" value="Parse&lt;br style=&quot;font-size: 18px;&quot;&gt;Curate&lt;br style=&quot;font-size: 18px;&quot;&gt;Condition&lt;br style=&quot;font-size: 18px;&quot;&gt;Load" style="swimlane;horizontal=0;whiteSpace=wrap;html=1;startSize=139;fontSize=18;" vertex="1" parent="1">
                    <mxGeometry x="2" y="256" width="258" height="256" as="geometry"/>
                </mxCell>
                <mxCell id="8" value="&lt;font style=&quot;font-size: 18px;&quot;&gt;Sources&lt;/font&gt;" style="swimlane;horizontal=0;whiteSpace=wrap;html=1;startSize=67;" vertex="1" parent="1">
                    <mxGeometry y="523" width="244.34" height="274" as="geometry"/>
                </mxCell>
                <mxCell id="10" value="" style="edgeStyle=none;html=1;" edge="1" parent="8" source="8">
                    <mxGeometry relative="1" as="geometry">
                        <mxPoint x="109.22727272727275" y="86" as="targetPoint"/>
                    </mxGeometry>
                </mxCell>
                <mxCell id="29" value="" style="shape=image;verticalLabelPosition=bottom;labelBackgroundColor=default;verticalAlign=top;aspect=fixed;imageAspect=0;image=data:image/png,iVBORw0KGgoAAAANSUhEUgAAAOEAAADhCAMAAAAJbSJIAAAAjVBMVEUAAAD///3////g4N709PIYGBgNDQ1kZGMXFxfMzMsJCQkEBAQKCgoSEhLn5+aFhYRcXFxubm6rq6oiIiIcHBzx8fD5+feYmJfs7OvX19V+fn3R0c9YWFczMzOLi4pqamm/v75JSUicnJuQkI+BgYAsLCtDQ0Ojo6GxsbC6urhISEhRUVB2dnY8PDs0NDOQnJ7bAAARKElEQVR4nO2diXbcqBJAJVpgLIS8aLG8O/E4tsdO/v/zHqANAVqbUr9zMpUzGcfqbvqqoCiqKBQQFpxMSLxPMydETP5D9CQn7ajJPs3YiIzs0rJTizH3r1kLkWCee2/FLRYioST336tMRBxwzr23MtK2gSjaJgBtG4hY8GH/rbjF0CJU2xoioZzmbDcdDswNwZTnCUzbHWJMA0wI38vUSEnathMqhkcC3bZshO9jxC0RIxBkEOrCKMc8oPvMxMOWA5bHuWgbVIOYiFkCc7rfGOyFctE2p8Btk4xxGsQn0KAY/xlh4JNwzJm8jdDNuEUYuIQBT1GEytsI4DMtaRvnAhHDusgxlgMxOAkgEx0HvvNIM51kJwEMEtG26D6gbcRE6pCT3Zw1TRIa53FAE1BDk2COCcbg861LYhxjQjFJILspEwsWocMYn8KQCv0JBTLgtuVEGydBY8v2XfWrkdH6iQzEEAhTPfRjdgxsiKGBB4MfInajTDWhOtV+iFit6nVPHyB2I610bAyCvRZPVNpPw37716I0M9aicy8tCh/DahsAMcP2JLEXYp7b/cV/R2Wu6NaOWrTEvxZj17jbC9GlsNOFineT/9I2vuTvzGnsJn+BFv8CxBOam72oHVpkALfc+sg4F+7k5QEtkjI0f1GV6diL0yuzbdPcxDnP4fOLWPzmC6FwmUTl4J8oRUVRjLwWoQujbVOLom2IxI2ZfCM8eFkKaCAKPRWFoBx7MXqaRpRtQ8RzNESGuVzyHJYT6ohRmhaHsBrToUQ0tah11DjHXIXlIRFZHlAZkVtDGEbtD2IEVkVZRVMvtrXY3V4ZkY9hUzdiycqISr41hMusTScFiqKoHLk4qsVWeEI4A46VMSoDOrQjLM9XyefLy8v9y9jVYlSLddtYJt9g06c05nmQcypvoyJEqc+PP5/SIpWJP46BQ4568g2U0IW4R/It4HGffIMltDsqF/MENGKM5W2kje0GJjS0GNfJN2A3VdzAnHQeKTThUIv5Xsk3lnWzLzjhQIsyoprBJo0YUfeRdDcSnrDToky+xwHnoIk/lnNMhMvUJ9p3IGy1iBOV+INN8udywhXzfR9XBSD8tBxBpUUZMRY2BjjJr5JvbY6fyaYACH/arq7UospMdZ4MiDmNRRfhZvINgPDK4cyj1wA++aZMDKeDBBiDIAxsQKVFSnRfFCDIiOUtNLwJAkJoD8TQ4cDBJN/sDQwQhH+ca07LgfMfgWOZY6cLBGFw7UacWPV7ElfyDYQwuF2mRYDk2046DLA7RIUujdftkdOAIQxiXYtdOAedm6/bIeDvJuQf17q8X0/J+7vLl74J24hNH5BDB+tlCbgW3YTZMLo9HZYqS+eKlv2swv7dY4TwOY2G0Ggm14fRZMxQvrsa86V/fD/dvN4oicYIwTtqQ2hEvnTCcgRMe8WCqIQyPU5CaC22vTQeTCSZHmqZixmjIwmBtdiNw0FOIwujFVIdSehCTLzt4u4tzRBRyuPbn2yRLGhnktCeF2XlmydEzZaayTcu7q03Wz5N6Ei+edsErM8WkJVvM4TmvOix7cF8aFS+Yeav8mWOUNeijObkxFfbwxm/mzQS35Vvs4RW5ZuvATLil3qvfJsn7ETQceLv3joJGZXa9BoTW0goN+LHOQmov7vrIMSEZ2dSLrfIw9fDl/jbvD0LCSknvivfHIQkC95W5oT1DPAhLCuEzDlyIWFT+eaz+9iEjDOaz3lq41KFqUzzm27OMkIGUPlmEcrKt+BxK2GZHoowrcpthITK5Bv1GxQ3CeVmf8yyrYRpKLeglOEmQpjKN5NQ+kokz+bHm3sQFuKvVC58t4xDWfkWe698GxLWlW80yZ4utsn3xcU/d+KvJ3M+WzDj15Vvse8U+IAwoSr5RgAq32YJYyor36j/yjedELLybZZQxnJxDFD5NtAhYOXbHCEDq3zTVsAYA1a+zayAMQVLvnWEDINWvk0TYmkDhpVv3hA7Qmmlze10HveeTRJiaT8NG+pNi70OZeUb3Ha6GR0SZrXtK6fRj0O98i2vDmvl/PxW+5cVfpuxNM7KNz9a1Gyplnzb4tOkg02qa702uMo3fbboK982rS306P96vxSs8s0dxVhJaGc2Nq6eTPGhxXqP8MGYF9b1UlduauMK2BQPyTdFGKVmJcb9ij3Rru3Q9+YqdiOhh44qCQv/OWBLthIe31EFYTSf5T7eu9lMeLQWF+bxj0bcTnisFpfuVDi28u0IwiPNzeK9GBZiktMVy/FjCI/zbm4X7zZxVL4t92PZITyC8KiOer58P42j8m25ElNZFraZ8JhVznIdDoWtbDVFAnE74Up5kDmJszP5v4d6fBRni+S5++nq7Pn5+ep54rWGFPWs9HDWtf0AB3gvvaoIlWWkQpxqgMCL1o5sWyj0HgrwQTRWVlUlPJlV7rUvKdMojVAqEKG0eCU+vapQWkxVgIJJGlUpqtJUtI3Mcmh/hMVtKDRYzm92ApDytiybrZmQhGU6WcILKVWYCkRYwufqINqoTqLBSCXfmvEPR4jCw0nwhKSyyL2NHwD20jA6nAYwEkOjPLQxD0AdoiqqTsBXygS4aLudpMAIz6q0KE9AKOfBMhX+ads2oA7L6hRzvRwZchND1zacDpds+wWQokJay+U6wlUhhr60bMcpMUqFG6MPjaJcQRjjVRtQtOK5/RDFNBFVhd53onI54coNNnp54F6IqXTUjDqaaDHhmmiJSbgfYhnaJ6E8L/3KrrTNUsIxRHNhN33J9Urjd4dDZBVALyYM8lVaNIpYXYgIFR93j/LFX6+34eD1qHx5+iWv0Ieb7tJPWTPyOuiF6EX97r77XWoZ8DW2dKulGUFEhV4p+GNwzsWHnnL5VV9qlrIXgw+uv5NW4GV1Uki/dBoRvRgbhu5Qd//NL6XqttGL+vlR0xK6rX+FnGxbCFfMiHap9RARXVtvuWzegu6sS+8Ksf5ZU1hTTKluwOiBYKsIVxgbRzG5/h0ahQihb93WjJu6N7blg28/vn63l+Toa8i1bor6i6PmeqUOlyO6yuX7ftSFTu9uxQrk9lvjaEtAz4RZRGF6E3RYbdisN651J5VBr2jURVw5DpcjughDa1l6Ky29+O+l52gU81xPAQj91LDe1I+dTWo66QcKJ6JBay3NYkQnYduX2qh0d8hZOyqFllGlfuqr7etOLG8OelU/fneXFHFcTW4HWG1LlyK6CZuO2tz8J21Eyenh664n/KeDv/jz78Olipo3N4a0V+pOeja932H9bGEfk8yw4/jrEcJai80Og/rmV2klZ8DX+6rpmPUHdBW+ZX1apLr0r7rUdFN5nxieO7Fww3xoaREzZte4jRFKRFSol/xSo64qlSPS+15tkDq+Ow8NJw29Dz77t6y6CaYBN834JiIVN9Lyd0YJBWJjWO7US1L1R/9KWrH51+t9pEEKEyzrlnLlfKpOig0fxw/hEJHIhaN50P4UobCoH+olN8rKy1jHMNyBvvUPwt/nmvP9Q+UXVccUdkceE3MPQagjYi7+UNtlnSAMy7qzCUdFrMirKjXcZRQahyL87ijkvSGNNUUZJ5y8TfNt9ku7imUeM+rMf08RNlb/GkVRmLrm6nYS7KQ7UKgMlO9Yqk5KxPB4nds5dqTnzSmh7v2ik4S1o3JdRkWq4rf2K6L3X4OPa88xaVZ7opuKD5FHMs6eG3oMIQ84DjLifmDQJGHdS1/T8FCU7pCjMKKH6yttEmrcocZIiTkQPcoNx1+zm/+OIsxinNjPm1hAWFuap6IIuzOCnav88PDe+t43zfWotmmyk3IxJN9hCUUvcWy6XUBYzwdnqCra9TtKb8NBjrqjPNTdta0CaxYYn6KTyns7fsTw8YSMZ3IYjtW9TBEqeyEk7cP+wvg8XtyXMpp7/nFz99yfH4SquomWUC4wmHDMf3Mx/uc76RGEmJDccSLUIkJU970X7cQV5cfxA2rWVQ/aNF/7ON3S6016UfRcTRsfgIR19dn49WnC2tT86hX1Wb9LzgL1QOu7n5jlm0v1P59U9dkf5SjO8m0nZNKLmSpmnyQMa8dUTGbN0KvXE/U6t/ZozrqhWA/arlZRLDBkWQqTt/d5XoVbfRpZ2kM5nag0nSKs0qJZut+pzTbovl7aqsmtXcl/N7uez0kH33zlP0R4UVTuBVtyEPo2Qi4niZhMHZsx5ZdGKEqbWYBffXy+fzXvedKXSEH+z+fLS3dN67U/xThM5Hn5fEl2axuhPHqVk5hPxN4mCGUCunTsPfvdfCXXtjR9sVzI08TkZtB/Fqhw0/qQ02RwRq9zShxfH1aRWg+mb8Y7HtuAfB+H6+Ry8J3bXU5zy4qthMLTxol+6pzz4UgjhKiKVB5aup7fwzf0GQd0bizGLgYx/8YlCh4X8G0hpPZz11yxmxFClaJttvKg2z5pcnmvu22ofNfC+leGd91a3tllxUZCngfWRO9AHItEHcTX7zYRoFA4ME831+el6ZaKmf/l+vXi6f3z1k5MoVIdq7SEb1Mv5Tm3qvVtxLFeGh0qfcHbbJR0vXIs77ZStthS7nBlLMRRS+PcRwSYQt00W7gWTKa5GZ8tnPuI4BD9ZdcMLToJJ2boBYjbdq94zB8OEV2Ek3tNZxHHky97EQ4RHYQzm2lnEDcC+s0B64g24exu4UnErYCes9waokW4YDv0BOJmQN95/B5xen24HnGz+N6p0CFuIoRA9L4Xo0XcRuhATNPjNnH6323SIG4ktPaMyL2iCz3QvQgbxK2E5qaUNEyPq7oZZrI8Im4mHCCKxWSKRgL/JyRUiNsJNcS0SIvq/24cKkQWPG5c9qi3NRtNCrmZsjxuAYXQIwShlLtUOwO4aW7NscFRlKbVIUqrNW+x20ntLWQgAnTqvCVHVTqvFpl8I4xzoOfMOKUljDP5dE4+Fe70IITSbmPx3oSEY/jHdqkTQlkTDdibMItZDnDg3UAo53nQPbRrb0KWJwwYUJ7apyXf9rc0GfTzHmTMOKaQz11zSkfIKOwopDlXR/VCPnfNKS2hfD4oZDuUqKOySf+k2r0JEwL7lNwslsk3pp3UvXsvbZ55ADMfijlCz0yplcapfBoQRVIS57GJuBMhrkyvDcCrUc+OxIPuwWCeu2YLwbZf6vXwUCW8frzjQGCeneeQzOF5+++oPOf2Y8lOubbw79u4km8rnsv9ufA0OqeouLG5egLoqCPPXQsXHVBTn2djiOt3LgldhACII8/OmxVPyTd7BQzshC8mnMxNrEi+Odb4oA6OkiXbs2aSLzOIWuLHsR8HYl4cyr/z8bLZwPYkog7YbhsbCLgWLw9zBmbejEyYG92IHcwHPNayw1g8tfi3qC5ZUaLpX449dnKZ2IgMQzxCwClWR2WYOh4Le6Qsq3wDElOLlDGAlbJV+RY7Kt+gxDx2EqZts/KNBt4fpzEuGiLjMuAJ0naPyHKSc+qofIOTvm2ccMqBbEB3H3ks2tlrEBqNc8Kox+euuYXzsco3eOEyrQLbdl35lrgr34CFMxlQ5Ry2bZ6x8co3YEmymNMAuo9yLfm2t8iSLeh7O1P5Bt12wnLo8T9T+QbbtrDgMbSHrCrfljzgF6jtOIOeoxL1/LrTWBkZzR0pXvYlCyrf4AQrR4bCJt/qyrfE2wOj14iYoOQz3zhs2wsq38BEnsLSVL5Biax8G6w6d5wSGRV9dLCygbjJwtMeVr7tGNjAcUCHyWGAtvmyyjcQUas0w8JAZKYWVb6BiHwyp7Xghcgvcjxf+QYjce7YgwKTQjVlTy1aAtBRHa7MboguN2qfaev/LlTsX5zl0nvJPm2fVIv7rAH+go76HyKs/A2Iu7TiQKSOYydh5ERapHHgP8U3IqdBxMGeybf/ARuD8WoNaYWPAAAAAElFTkSuQmCC;clipPath=inset(13.11% 14.89% 14.44% 15.78%);" vertex="1" parent="8">
                    <mxGeometry x="110" y="59.5" width="148.34" height="155" as="geometry"/>
                </mxCell>
                <mxCell id="14" value="" style="shape=link;rounded=1;fillColor=#1ba1e2;strokeColor=#006EAF;snapToPoint=1;endFill=1;fontColor=#66B2FF;strokeWidth=2;" edge="1" parent="1">
                    <mxGeometry width="100" relative="1" as="geometry">
                        <mxPoint x="2" y="252" as="sourcePoint"/>
                        <mxPoint x="848" y="252" as="targetPoint"/>
                    </mxGeometry>
                </mxCell>
                <mxCell id="15" value="" style="shape=link;rounded=1;fillColor=#1ba1e2;strokeColor=#006EAF;snapToPoint=1;endFill=1;fontColor=#66B2FF;strokeWidth=2;" edge="1" parent="1">
                    <mxGeometry width="100" relative="1" as="geometry">
                        <mxPoint x="2.5" y="518" as="sourcePoint"/>
                        <mxPoint x="848.5" y="518" as="targetPoint"/>
                    </mxGeometry>
                </mxCell>
                <mxCell id="16" value="" style="shape=link;rounded=1;fillColor=#1ba1e2;strokeColor=#006EAF;snapToPoint=1;endFill=1;fontColor=#66B2FF;labelBackgroundColor=#66B2FF;labelBorderColor=#66B2FF;strokeWidth=2;" edge="1" parent="1">
                    <mxGeometry width="100" relative="1" as="geometry">
                        <mxPoint x="2.5" y="802" as="sourcePoint"/>
                        <mxPoint x="848.5" y="802" as="targetPoint"/>
                    </mxGeometry>
                </mxCell>
                <mxCell id="19" value="" style="shape=image;verticalLabelPosition=bottom;labelBackgroundColor=default;verticalAlign=top;aspect=fixed;imageAspect=0;image=data:image/jpeg,/9j/4AAQSkZJRgABAQAAAQABAAD/2wCEAAkGBw8PEBAQDRAPDg0PEBAOEA8PEBAPEA0NFREWFhURFRUYHSggGBolHRYWIjIhJikrLi4uFyAzODMtNyktLisBCgoKDg0OGhAQGisdHR0tKy0tLS0rLS0rLS0rLy0tKy0tLS0tLS0tLSstKy0tLS0tLS0tLS0rKystKzcrLS0rLf/AABEIAKgBLAMBEQACEQEDEQH/xAAcAAEAAgIDAQAAAAAAAAAAAAAAAgcDBQEEBgj/xABFEAACAQEEAwkMBwkBAQAAAAAAAQIDBAUREgYhURMiMTNBc5Gy0gcWMkJScYGSk6HC0SMkYWKUscEUJTQ1Q2NygoOiFf/EABoBAQEAAwEBAAAAAAAAAAAAAAABAgMFBAb/xAArEQEAAQMDAgQGAwEAAAAAAAAAAQIDEQQSMSEyBRRBYRMiM1FxkRU08KH/2gAMAwEAAhEDEQA/AKNAAAAAAAAAAAAAAAAAAAAAAAAAAAAAAAAAAAAAAAAAAAAAAAAAAAAAAAAAAAAAAAAAAAAAAAAAAAAAAAAAAAAAAAAAAAAAAAAAAAAAAAAAAAAAGWjZ51HhThOb2Qi5P3BMtrZNFLfU4LNUgny1cKK8+/wJlrqvW6eZamtScJSjLwoycXy608GVt9GMAAAAAAAAAAAAAAAAAAAAAAAAAAAAAAAAAAHcst12mrhuVCtUx5YU5yXSkGM1Ux6tvZ9CbfPwqcKS21asI+5Nv3Ey1zqLceraWfufP+taqcXyqlTlU97cSTU0zrKY4hs7PoVYYeHu9Z/enGmn6IrH3k3NNWtq9IbKhc9jpYbnZaCw5ZxdV9M2ybpaKtTcn1d+NZpYR3i4MIJQXQiZaprqn1RzYhip+8ONq85PrM2xw71PEOsGQAAAAAAAAAAAAAAAAAAAAAAAAAAAAAAzWKkp1KcJYqM5wi8OHBySeASZxGVrWfQy7qf9GdVrlq1ZNdEcEYbnNq1dbZULDZ6WujZ7PTa8aNGGb1msSZlpqvV1cyzVK0nwyeGzF4dBi15mWFyKjG5Awi5AQbIjhyKgpBHg7RohapznKMqOEpykt/Lgbb8kziqHVjWW4iMod5Vr8qj68uyN0HnrXu5WhNr8qj68uyN0HnrXud5Fr8qj68uyN0J5+17ue8e1+VQ9eXZG6Dz9n3crQW2eVQ9eXZG6EnxCzH3a2+tH7RY1F1lBxm2lKEsyzLkeKRYqiW+zqbd7taplb3AAAAAAAAAAAAAAAAAAAAAAADtXZx9HnafXQY1dsrtm+E1OJLDKQGOUiDHJlEGwINgRzBMOGwkoylqfmYRZ1l0Qu1whJuWMoRb+n5WseAzxDpRprUxGWdaH3btl7cYg8tYZJaE3fHW1US2us0hthlOjtRy4Wh927Ze3fzGIYeUsf6XPehdv3vbsYhPKaf8A0o2nRCwxpznCM3lhOSe6yaxUWJphKtFZ2zMKN7o7+r0ee+CRjQ8/hkfPV+FeGx2QAAAAAAAAAAAAAAAAAAAAAAB2bs4+jztProMau2V1VHrZqcVhkyDHKQGNsCLYEMSojiFRbDFxiEwhlWxdBDMpwwXIuhFI5Wv3RV9QjztL8mZ1dIdLWfRVikti6DXlxeqSiti6CZTMrQ0VX7q/0tPWmbI4dmx9D9qK7oj+r0ee+BkoeXwzvq/CvjY7IAAAAAAAAAAAAAAAAAAAAAAA7N28dR52n1kGNXErnmzU4ssMmRGOQVjkURbAiURbIIYhHEnqfmZUWfZbhuVwg5OhmcIt/WpLXgsdWcy6OjRatY6uxHR649tD8XLtlxDL4Nl6C+bJZqtFQteVUM0Xv5umsy4N9ig3XKKJpxVw0auG5NtH8VLtkxDz/AsJf/BuXbR/Ey7ZMQnwNO28LPQp2OpCy5dxVOtlyyc1i1JvfYvlxMo4bttMW5inh85d0J/V6PO/BIwp5c/wzuq/DwBsdgAAAAAAAAAAAAAAAAAAAAAAAdm7eOpc7T6yDGrtlck2anFlibIN7o3c9ntcZ551I1YPXGLik4PgksV5zOIeuxapr5lHSrR+NljCpRzOk95PM8zjPhTxw4H+n2iYS/YijrDT3Nd8rVXhRjiszxlJeJTXhS6PfgIabdG6rCyK9y3dZ6U6tSz0slOLlJyWZtJcGvhb4PSXDoVWrdNOZhVdsr7pUnNRjTUpNqEEoxhHkiktiMXMrnMsGJGLjEJKLCJRMoI5Wz3Sv5fHnaP5Ms8Olq/pKria3IlliyMZWpol/Kf9LT1pm2OHY039f9qH7oL+r0ed+BmNDy+G99X4eCNjsAAAAAAAAAAAAAAAAAAAAAAADs3dx1LnafWQY1dsriqGpxZYmB2rnvF2atCqsXFapxXjU3wr9fOixLbar2VZWZaKFO00XCW+pVYamtjWKkvczOXUmIrpw1mh1xOyQnKrg685OOK5KUXgsPPhj0bBhqsWtmctL3Rb5xcbJTeqOFSthyywxhD0J4+lbCTLRqrnXbDw7Zg8ThsCMnqfmCLOs1G4ckMzsObJHNjWSebBY474ydCIsYjOHYjR0f22D2y7RejKPL+z0l9wsjopW50lZ80cHVkowz+Lrx4eErdc2TT83DQbjo95Vh9qu0To8+NN7JKjo/ySsPtY9ovRNum9m6pKzqx1P2N03Z9zrZXSalDHfZsH58Sejf8AL8KdnD5w7oD+r0ed+BmNDneG99TwZsdgAAAAAAAAAAAAAAAAAAAAAAAdm7uOpc7T6yDGrtlcNQ1OKxSAxsK9zoDeTnCdnli9y30Ja8Nzb8Fv7H7n9hnEvfpa5np9npL2tys9CrWazbnFtR2y4EnsWLWsr011bYmVOWitKpKU5tynOTlJvlk2YORVO6cyxMjEAiwjhMqSkhBHK2+6b/Lo89R/JmVXDpav6X6VOjByJTQRbGiH8o/0tPWmZxw62m+h+1D6ffw9HnfgZKHl8N76nhDN2AAAAAAAAAAAAAAAAAAAAAAAB2bu46lzlPrIMau2VwVDVLisUgMcgsdVmaKXX+zUEpL6WphOptTa1Q9C9+JsiHUsW9tLcPJVhKLwnTkpQksU1Ja4yj+aLLbMRXGFRX7dkrJXnReLinmhJ+PTfgv9POma5hyblGyrDXMjWiBGXLhsYTK0LLa7hyQzqxZssc2NDF5sNeO82mT30zYx1w7EbXo95Nh9guyZdGUTp/Z6S+6ljjRTtypOz5o4brDPDP4urB6+EN9yaNvz8PPq2aPeTYfYLsk6PPv03s5/bNH/ACbF7BdkdE36b2bqlUs0rFUdj3NWfcq2Tc45IY4SzYLBcuI9G+Nnw52cPm/Tz+Ho878EiUOd4b31PDGbsAAAAAAAAAAAAAAAAAAAAAAADs3dx1LnKfWQY1cSuCoapcWWKRBu9Ebs3asqk1jSovM8eCVTxY+jh9C2mdL06a3uqz9nrtI71/ZaEpp/Sz3lJfffjeZLX0GT2X7kUUvPdz+98s5WWo97UxnSbeP0vjR9K1+h7SPPprno3Ond0bvZ91gsa1nTnq4ZUeGcfRw+h7RLbqbe6nP2VhiYuaiyI4COMUVHKkiEcra7pj/d8eeo/lIznh0tX9JVKa2rpNTkSksNq6SsZlbGiL/dH/O1daZsjh2NP9CVEae/w9HnfgZKHl8N7qnhTN2AAAAAAAAAAAAAAAAAAAAAAAB2bu46lztPrIMauJXDUNTiyxMI7divq0WeOSjNRji5YZIPW+F4tYliW2i7VRwwXpela0uLrSUnBZYpJRSxeLeC5fkhkuXJr5dOnUlCUZwbjOLUotcKknimMsKZmmcvX0+6FU8ezU2/u1JJP0NMuXqjVTjGHjrZUhKpOVOG5wlJyjDHNkT15ccFqI8tUxM5hgZGKMlqfmCLTs2klzKEFJUsyhFPGyye+wWOvIZOjF+zhnWk1y/2vwsuwXMMovWXoL5t1mo0s9ry7jmilmp7oszxw3uD+0s8NtyuimM1cNCtJbl2UvwsuwTMNHx7DnvkuXZS/Cy7Aynx7DcQtVCrY6k7NhuLpVsuENzWKUk97guVMscN+6mq3M08PnHTz+Ho878DMaeXO8M7qvw8MZuwAAAAAAAAAAAAAAAAAAAAAAAOzd3HUudp9ZBjV2yuKZqcWWGQRjkFQYEGEQYEWBEIMJKKmtq6SokpLaulE6kcrW7pMvqC5PpqP5SM54dLV/ShVimtq6UYdXHTUltXSMJK1NFH+6v+dq60zOJ6Ozp/6/7UXp7xFLnfgZKeXk8L7qnhTN2QAAAAAAAAAAAAAAAAAAAAAAB2bt46lztPrIMau2VxzRqcSZYpIJljkguWNoGWOQTKLQMotFMo4ETLiUcU/MGK0LPppd0YQT3TMoxT+gx1pYbS5dKNTaiOrKtOLt/uewRcwy8zZTend3vU3Wfno4/qMr5y1jDjv3u7+57AZhr83Z+3/Eu/W7v7nsBmDzlj/Qx2rTOwyp1IQdVOUJxS3JpYuLSGYSrW2dsxCkdPl9BS534GSl5vC+6p4Q2O0AAAAAAAAAAAAAAAAAAAAAAAM1kqKFSE3rUZxk0uFpNMJMZjCxqGmVjn4Up039+Dw6Y4mGHMq0lcdY6thRvezVOLrUpPZnin0PWTDTVZrjmHYbT4MGRrmmYQaCINAQaAiwiOADAI8XadKLTGc4pUsIylFbx8CeG0z2w6saO3MRlj77LVspeo/mXbC+Ste5322rZS9R/Mm2DyNpz33WrZS9R/MbIY+Qte7laYWrZR9R/MbIP4+z7ue/K17KPqP5k2Qn8fZ93Qva+69qUVVccsMWowjlWL5WZRGG+zprdnt9WtK3uAAAAAAAAAAAAAAAAAAAAAAAADnEBiBmoWyrT4upUh/jOUfyGGM0xPMNlQ0ntkP6udbJxjL38JNsNVWntz6NjQ00qrjKUJf4ycPmTDTOipniWwoaYWeXhxqQfmUl0r5Emlpq0VXpLYUL9stTwa0F9kt4//AEY7ZaatNcp9HdhUjLXGSktqaaGGiaKo5hyXCKvtvG1Ocn1mZvoI4hgKrgAAAAAAAAAAAAAAAAAAAAAAAAAAAAAAAAAAAAByAAlTqSi8Ytxe1Nr8gkxEu9Qvq0w8GtNrZJ517yYa6rNurmHRqTcm5Phk23528StiAUAAAAAAAAAAAAAAAAAAAAAAAAAAAAAAAAAAAAAAAAAAAAAAAAAAAAAAAAAAAAAAAAAAAAAAAAAAAAAAAAAAAAAAAAAAAAAAAAAAAAAAAAAAAf/Z;clipPath=inset(11.9% 23.33% 10.71% 24.33%);" vertex="1" parent="1">
                    <mxGeometry x="122" y="44" width="178.02" height="147.4" as="geometry"/>
                </mxCell>
                <mxCell id="23" value="" style="shape=image;verticalLabelPosition=bottom;labelBackgroundColor=default;verticalAlign=top;aspect=fixed;imageAspect=0;image=data:image/png,iVBORw0KGgoAAAANSUhEUgAAARwAAACxCAMAAAAh3/JWAAABUFBMVEUAAAD///83c6X/0kH/1kb/zz83dag3b57/0UA4d62rq6tPT0+np6c4cKFra2vn5+fg4ODS0tLMzMz/2ks0NDQqKio/Pz/Dw8Pb29sAAAb09PTs7OxwcHA3a5q2trby8vIzMzOYmJiFhYVYWFhKSkp4eHiTk5MrKyskPVgdFwwJEBkwYIQcL0F+fn6MjIzoujr/4lQeQldhYWEPDw8aGhrlxkr/yzkAAA8nJRIQGygtUXUzYIg6eqwnSGUfPF03d7IwVXI0XIc8gLc4cKocJzsMGCEbMkGZhjrFqkKihDM7MB3LskXTtFCxmUQfQFJZSiSAcSd5ZSstTWU5LRAGFAXWtT9GORblykzyzUc2eKEqRnBLRh7fxFtrYiwgHQ7y3VPQpz0GDx7/0zOZfS0kFQi0mjLqvlNSQiSznDUyHhmNfyGagzMzKx1uUyswIQj2yExmzUP4AAAJzklEQVR4nO2c+VvbRhqAR75lfBvbyCc2YI6AoTYxAZs4dQghbdMs7dLQdJdlTdm03W7z//+2MyNpNCPJlyw7kOd7nzSPrWM08/qbWylCAAAAAAAAAAAAAAAAAAAAAAAAAAAAAAAAAAAAAAAAAAAAAAAAAAAAAAAAAAAAAAAAwDxQPncG0GYxl/rcebBBsTGjKHZH50hZkqTkQp84EUTC8dZJp+QJyN1uINjpnO4uPpCSD1MOQs9L3Z7c6wVkIkcmfwdPzhach5WHKEdBx6VeH8vRCWA8nkD3RLGtb/PiIcrBbjw9udvHgSPI8QR6nYU20w9TTqnf7Zeenwa5yPEQgoEXi8zIPOQsx5rNWGYtg1BmyVECO/1eF8cIetXzGGGDiWKO3c2rmdUql+V5yFmqplKR5XwYobCzpHe6vf5X5MMTPmyoHHnX1ayKZKoJSYoZ3+dTreo1nHIOoVzZ0e1YTvcH8qEUMMvxfOVqRkXWsIwFyGnglKtrzbpTObIc3UFoqxcQzAQxX4acRDYSyeYc3U7kyPLXnZ7sMcuJPn45VSwnjpLh1gxyut2ux0MqldEYfxmRU8RPCKNarFV3dHur38NDHDzI6cm40Ql45KCu5kuInNlQWk94OtGXQd0NkaMo85qBPgY5Js4CLG6miZzsWnMtO92T1omcpvF9IjnZWLHYHPagzTV8NrY+XTaG8GqXcL6rcX6O/5yfBrCToCHn9QXhzTfIfmGDZjiykicFlfLJPeFEZi8nNoPLZcwG+bRWLufILSlyRG0ODDnLjXIykYxYSpktq8+R8rk1Sy42chVJO1ue2c9ptK9CpuPGrNMTZHFDG+Rv0ypvhlWt2IrEUdhgJw7jllCgwRKmReFvUi/S5LTqCf14alm4uyzcI4RPJpznT0rOBjU6O6U+MULXJ7SBMTGD+6kg50aV4yMcfGcbOVlNTb5S0LIX1k9t0vKJV5NDkSFyEvTyqlBKrtatxrUn5a3nquqZeCqnxfBsjZc6yyS9UzegQaaaZnQ5aZ83/dZmil5Tw0WdIq1HBDuZUXKWN4r03nCtVmsUmZw4jbZ6rBlT05LY3KtFK01ibxXfW4sL5w6TVIfatrcapt9oWhT0oi8biHNNw0ypFPyeRQ7mnSUhmpGK0dCs0xLEJpBD/Jh+fq02lTNakamBgn42yd+KwvTBLe5GIxOrBZrOqgMxlON+TxbtCJMG3Y0ox3trSScs/LhI657j6udxcrKcSFZG7gCVJ9XULw1TNIS576QmJcxPkarTCOHpmN0MkRP9Hl3ockK+9DNzOhY5KGcUyJEcvpmNcI0HJ12FxpUaZGY5arYcb2SMN0PU4Mg5RxcDGjVer3/g+5s5HaucJYnl1IkcofwZI60GF0QqtEVXxwAWOeuzyNntThI2hB301KfJCXlDF+YOyyqH+0VnlkPTShipioUwlFTMclZnkfNBlOMZKucEHV3rcvy+0BVSjoSEbOTQekUHO7PLyemlppeuiIVIkWOH5FPBLGd5Fjlfd8fWKdXOK3SZpmZw4IT8IX8LjY2cKiu/jZxVh3L2yKWmgR19EO3s3JVT0vdhhoSN1uB0zhC68mlyvCG/P/RsfLWioxc6aXBRTthoYBhUGO3A5y5HG+RQR+RPNNj5YQeh12mtwcH4/b4fx8spsi7GRTk5JsKAjhpof+2ynIBhJhAMBLvRJ6dbz7cEzkjr8lqPGmwG4/vJlJCNnCbrYtyWUxSfbczT5ikn2nuxY3fV3y+v8ITTVTmbeWdyyqyVN1hn7dD85GDO8aF3b6/ev3//lOPal9Ya45Dmpu2dQE6MdSx2cmZpc4Rhjjaiomm5LoeZefnzB4R++ccBJc3QOvCQj4WNv90O/WiaetrI2RjV5oyMnPhwOVXWvhjEmDB35XQC3CZMSVH+KXhhE029E9fdtP034+U0WLTbyMk4lBNjiRrU2O1xV+WccHK6H9DNvwQ3nB2+TmE3++YVHRs59FCDmnBPTpaFowGdedHVsISrcrZ6xvDGc4beWiuUETaGm7b/1ryiYyOHLn7RZUoX5dhNH8gahrqg4a6cXZkbF/8bPZ2oTrXbgztzQlY5tPh59SNrmsWzTuSUrb9CntU0d+WgkmyM+1DrwLZKaZNNI26snZWNHG7d5VCy/NyHTuVkLY1OkUWo23JOZBY4UXRjL4erVG1VzpUlnbCRQw26hJs1SmsanVTMcriR3Sg5tLbmM9y5pBGWLss5Dhjb4Wj7YEidCvF1Cnfk/7OsIVM5CS506FBW346hdaFyyF1P50O6nFVTNIyUs2QqL+2rtDVWl+WgF4Hxcvg6RSLnwrrATuXgEmqhkqHLCFKLz6NUYJGVVfdW2ELwChdlaIwctXNiKjf4b+7KUdBOUNZn4LZyTE0x7cePrJsPmhwc4OHaXlVVwzUjde1kpLZXq+b07Sgmh8408g3d5Wg56vpNoZElL3PTz6xrdzty0HHnpeelTCPn1wPBTNqL1WA9IdUS/s/vDw3890c2qVA5cUmAnzxHxFNSnG+Q9Y0dKV+fRI64p8cXfsVtOah1UgpGg7jpMcm5fv+f62syt9rnuL3/aJsIlZPdKxhZrjSFC2KcuXh4jQow5KBsioslcq4g3J0SdRW5xPLcTMsyKVsWAssRR2d0i5xVKzVufrPUHjIsPrJ/51bvypfCCdpNxa0vwcTKiUqlgKsd7WpI8YTttsNaeaWizprqkUhEnD8Vq9WqMN1shhOVfL4SzwnLFzXzZYd1fMQ0iXcIlcNam/vW788Yv7dG38qNc1rZpaXNsc+yyJme1pg8uYsox8c+4jZ58MfoN3Nspg+jIXIc77Z9DkxyvNrqHx0BWnaqRKaVQze83Yn3BbF9YJ5Oef1e78DrH9jMpkSmlUMHxe68XLQgrHIGn7z/fffa2257XZZDBj75w/HXPRxEObgy4cC5xMcv/a5HTn7G8cfCObo5MC9RDD5tkxclfe3QnasNctg8SHzoKPqOLyfnk+9PfGYbTx3uRv+bounk0PFyZeYcLxA8xPstzdUpYqc9uFCOlNsBnoiPvnkaOS06Y+cXcB4BCvrrWp1N0R1fbZ9h/3afrOCMeQF5Cjl19WU9Z++Rf05++qRu3okTcX97/88xr2dPKGd5L6fNiB7VGEdFublP+wamxS1/6H5spxuZRE5Mf/0zH1noyN89bv64ou0ybXbIMtfV3V9o+HvZOs3keDnqK3qF3ONqbXiwhe2Pl3dv7jFv7i4//jrpjUtJ68vkJpKp8MajGhabUUifrVBJarQs+H9H8KBRqBhVCP83AAAAAAAAAAAAAAAAAAAAAAAAAAAAAAAAAAAAAAAAAAAAAAAAAAAAAAAAAAAAAABfJP8Hz/0kP4Hy8Y8AAAAASUVORK5CYII=;clipPath=inset(33.05% 72.54% 32.49% 5.99%);" vertex="1" parent="1">
                    <mxGeometry x="353" y="311.75" width="144.5" height="144.5" as="geometry"/>
                </mxCell>
                <mxCell id="25" style="edgeStyle=none;rounded=1;html=0;exitX=0.25;exitY=1;exitDx=0;exitDy=0;fontColor=#66B2FF;endFill=1;" edge="1" parent="1" source="24" target="19">
                    <mxGeometry relative="1" as="geometry"/>
                </mxCell>
                <mxCell id="24" value="Twitter Users" style="text;html=1;strokeColor=none;fillColor=none;align=center;verticalAlign=middle;whiteSpace=wrap;rounded=0;labelBackgroundColor=#1A1A1A;fontColor=#66B2FF;" vertex="1" parent="1">
                    <mxGeometry x="194" y="10" width="60" height="30" as="geometry"/>
                </mxCell>
                <mxCell id="27" value="" style="shape=image;verticalLabelPosition=bottom;labelBackgroundColor=default;verticalAlign=top;aspect=fixed;imageAspect=0;image=data:image/jpeg,/9j/4AAQSkZJRgABAQAAAQABAAD/2wCEAAkGBw8PEBAQDRAPDg0PEBAOEA8PEBAPEA0NFREWFhURFRUYHSggGBolHRYWIjIhJikrLi4uFyAzODMtNyktLisBCgoKDg0OGhAQGisdHR0tKy0tLS0rLS0rLS0rLy0tKy0tLS0tLS0tLSstKy0tLS0tLS0tLS0rKystKzcrLS0rLf/AABEIAKgBLAMBEQACEQEDEQH/xAAcAAEAAgIDAQAAAAAAAAAAAAAAAgcDBQEEBgj/xABFEAACAQEEAwkMBwkBAQAAAAAAAQIDBAUREgYhURMiMTNBc5Gy0gcWMkJScYGSk6HC0SMkYWKUscEUJTQ1Q2NygoOiFf/EABoBAQEAAwEBAAAAAAAAAAAAAAABAgMFBAb/xAArEQEAAQMDAgQGAwEAAAAAAAAAAQIDEQQSMSEyBRRBYRMiM1FxkRU08KH/2gAMAwEAAhEDEQA/AKNAAAAAAAAAAAAAAAAAAAAAAAAAAAAAAAAAAAAAAAAAAAAAAAAAAAAAAAAAAAAAAAAAAAAAAAAAAAAAAAAAAAAAAAAAAAAAAAAAAAAAAAAAAAAAGWjZ51HhThOb2Qi5P3BMtrZNFLfU4LNUgny1cKK8+/wJlrqvW6eZamtScJSjLwoycXy608GVt9GMAAAAAAAAAAAAAAAAAAAAAAAAAAAAAAAAAAHcst12mrhuVCtUx5YU5yXSkGM1Ux6tvZ9CbfPwqcKS21asI+5Nv3Ey1zqLceraWfufP+taqcXyqlTlU97cSTU0zrKY4hs7PoVYYeHu9Z/enGmn6IrH3k3NNWtq9IbKhc9jpYbnZaCw5ZxdV9M2ybpaKtTcn1d+NZpYR3i4MIJQXQiZaprqn1RzYhip+8ONq85PrM2xw71PEOsGQAAAAAAAAAAAAAAAAAAAAAAAAAAAAAAzWKkp1KcJYqM5wi8OHBySeASZxGVrWfQy7qf9GdVrlq1ZNdEcEYbnNq1dbZULDZ6WujZ7PTa8aNGGb1msSZlpqvV1cyzVK0nwyeGzF4dBi15mWFyKjG5Awi5AQbIjhyKgpBHg7RohapznKMqOEpykt/Lgbb8kziqHVjWW4iMod5Vr8qj68uyN0HnrXu5WhNr8qj68uyN0HnrXud5Fr8qj68uyN0J5+17ue8e1+VQ9eXZG6Dz9n3crQW2eVQ9eXZG6EnxCzH3a2+tH7RY1F1lBxm2lKEsyzLkeKRYqiW+zqbd7taplb3AAAAAAAAAAAAAAAAAAAAAAADtXZx9HnafXQY1dsrtm+E1OJLDKQGOUiDHJlEGwINgRzBMOGwkoylqfmYRZ1l0Qu1whJuWMoRb+n5WseAzxDpRprUxGWdaH3btl7cYg8tYZJaE3fHW1US2us0hthlOjtRy4Wh927Ze3fzGIYeUsf6XPehdv3vbsYhPKaf8A0o2nRCwxpznCM3lhOSe6yaxUWJphKtFZ2zMKN7o7+r0ee+CRjQ8/hkfPV+FeGx2QAAAAAAAAAAAAAAAAAAAAAAB2bs4+jztProMau2V1VHrZqcVhkyDHKQGNsCLYEMSojiFRbDFxiEwhlWxdBDMpwwXIuhFI5Wv3RV9QjztL8mZ1dIdLWfRVikti6DXlxeqSiti6CZTMrQ0VX7q/0tPWmbI4dmx9D9qK7oj+r0ee+BkoeXwzvq/CvjY7IAAAAAAAAAAAAAAAAAAAAAAA7N28dR52n1kGNXErnmzU4ssMmRGOQVjkURbAiURbIIYhHEnqfmZUWfZbhuVwg5OhmcIt/WpLXgsdWcy6OjRatY6uxHR649tD8XLtlxDL4Nl6C+bJZqtFQteVUM0Xv5umsy4N9ig3XKKJpxVw0auG5NtH8VLtkxDz/AsJf/BuXbR/Ey7ZMQnwNO28LPQp2OpCy5dxVOtlyyc1i1JvfYvlxMo4bttMW5inh85d0J/V6PO/BIwp5c/wzuq/DwBsdgAAAAAAAAAAAAAAAAAAAAAAAdm7eOpc7T6yDGrtlck2anFlibIN7o3c9ntcZ551I1YPXGLik4PgksV5zOIeuxapr5lHSrR+NljCpRzOk95PM8zjPhTxw4H+n2iYS/YijrDT3Nd8rVXhRjiszxlJeJTXhS6PfgIabdG6rCyK9y3dZ6U6tSz0slOLlJyWZtJcGvhb4PSXDoVWrdNOZhVdsr7pUnNRjTUpNqEEoxhHkiktiMXMrnMsGJGLjEJKLCJRMoI5Wz3Sv5fHnaP5Ms8Olq/pKria3IlliyMZWpol/Kf9LT1pm2OHY039f9qH7oL+r0ed+BmNDy+G99X4eCNjsAAAAAAAAAAAAAAAAAAAAAAADs3dx1LnafWQY1dsriqGpxZYmB2rnvF2atCqsXFapxXjU3wr9fOixLbar2VZWZaKFO00XCW+pVYamtjWKkvczOXUmIrpw1mh1xOyQnKrg685OOK5KUXgsPPhj0bBhqsWtmctL3Rb5xcbJTeqOFSthyywxhD0J4+lbCTLRqrnXbDw7Zg8ThsCMnqfmCLOs1G4ckMzsObJHNjWSebBY474ydCIsYjOHYjR0f22D2y7RejKPL+z0l9wsjopW50lZ80cHVkowz+Lrx4eErdc2TT83DQbjo95Vh9qu0To8+NN7JKjo/ySsPtY9ovRNum9m6pKzqx1P2N03Z9zrZXSalDHfZsH58Sejf8AL8KdnD5w7oD+r0ed+BmNDneG99TwZsdgAAAAAAAAAAAAAAAAAAAAAAAdm7uOpc7T6yDGrtlcNQ1OKxSAxsK9zoDeTnCdnli9y30Ja8Nzb8Fv7H7n9hnEvfpa5np9npL2tys9CrWazbnFtR2y4EnsWLWsr011bYmVOWitKpKU5tynOTlJvlk2YORVO6cyxMjEAiwjhMqSkhBHK2+6b/Lo89R/JmVXDpav6X6VOjByJTQRbGiH8o/0tPWmZxw62m+h+1D6ffw9HnfgZKHl8N76nhDN2AAAAAAAAAAAAAAAAAAAAAAAB2bu46lzlPrIMau2VwVDVLisUgMcgsdVmaKXX+zUEpL6WphOptTa1Q9C9+JsiHUsW9tLcPJVhKLwnTkpQksU1Ja4yj+aLLbMRXGFRX7dkrJXnReLinmhJ+PTfgv9POma5hyblGyrDXMjWiBGXLhsYTK0LLa7hyQzqxZssc2NDF5sNeO82mT30zYx1w7EbXo95Nh9guyZdGUTp/Z6S+6ljjRTtypOz5o4brDPDP4urB6+EN9yaNvz8PPq2aPeTYfYLsk6PPv03s5/bNH/ACbF7BdkdE36b2bqlUs0rFUdj3NWfcq2Tc45IY4SzYLBcuI9G+Nnw52cPm/Tz+Ho878EiUOd4b31PDGbsAAAAAAAAAAAAAAAAAAAAAAADs3dx1LnKfWQY1cSuCoapcWWKRBu9Ebs3asqk1jSovM8eCVTxY+jh9C2mdL06a3uqz9nrtI71/ZaEpp/Sz3lJfffjeZLX0GT2X7kUUvPdz+98s5WWo97UxnSbeP0vjR9K1+h7SPPprno3Ond0bvZ91gsa1nTnq4ZUeGcfRw+h7RLbqbe6nP2VhiYuaiyI4COMUVHKkiEcra7pj/d8eeo/lIznh0tX9JVKa2rpNTkSksNq6SsZlbGiL/dH/O1daZsjh2NP9CVEae/w9HnfgZKHl8N7qnhTN2AAAAAAAAAAAAAAAAAAAAAAAB2bu46lztPrIMauJXDUNTiyxMI7divq0WeOSjNRji5YZIPW+F4tYliW2i7VRwwXpela0uLrSUnBZYpJRSxeLeC5fkhkuXJr5dOnUlCUZwbjOLUotcKknimMsKZmmcvX0+6FU8ezU2/u1JJP0NMuXqjVTjGHjrZUhKpOVOG5wlJyjDHNkT15ccFqI8tUxM5hgZGKMlqfmCLTs2klzKEFJUsyhFPGyye+wWOvIZOjF+zhnWk1y/2vwsuwXMMovWXoL5t1mo0s9ry7jmilmp7oszxw3uD+0s8NtyuimM1cNCtJbl2UvwsuwTMNHx7DnvkuXZS/Cy7Aynx7DcQtVCrY6k7NhuLpVsuENzWKUk97guVMscN+6mq3M08PnHTz+Ho878DMaeXO8M7qvw8MZuwAAAAAAAAAAAAAAAAAAAAAAAOzd3HUudp9ZBjV2yuKZqcWWGQRjkFQYEGEQYEWBEIMJKKmtq6SokpLaulE6kcrW7pMvqC5PpqP5SM54dLV/ShVimtq6UYdXHTUltXSMJK1NFH+6v+dq60zOJ6Ozp/6/7UXp7xFLnfgZKeXk8L7qnhTN2QAAAAAAAAAAAAAAAAAAAAAAB2bt46lztPrIMau2VxzRqcSZYpIJljkguWNoGWOQTKLQMotFMo4ETLiUcU/MGK0LPppd0YQT3TMoxT+gx1pYbS5dKNTaiOrKtOLt/uewRcwy8zZTend3vU3Wfno4/qMr5y1jDjv3u7+57AZhr83Z+3/Eu/W7v7nsBmDzlj/Qx2rTOwyp1IQdVOUJxS3JpYuLSGYSrW2dsxCkdPl9BS534GSl5vC+6p4Q2O0AAAAAAAAAAAAAAAAAAAAAAAM1kqKFSE3rUZxk0uFpNMJMZjCxqGmVjn4Up039+Dw6Y4mGHMq0lcdY6thRvezVOLrUpPZnin0PWTDTVZrjmHYbT4MGRrmmYQaCINAQaAiwiOADAI8XadKLTGc4pUsIylFbx8CeG0z2w6saO3MRlj77LVspeo/mXbC+Ste5322rZS9R/Mm2DyNpz33WrZS9R/MbIY+Qte7laYWrZR9R/MbIP4+z7ue/K17KPqP5k2Qn8fZ93Qva+69qUVVccsMWowjlWL5WZRGG+zprdnt9WtK3uAAAAAAAAAAAAAAAAAAAAAAAADnEBiBmoWyrT4upUh/jOUfyGGM0xPMNlQ0ntkP6udbJxjL38JNsNVWntz6NjQ00qrjKUJf4ycPmTDTOipniWwoaYWeXhxqQfmUl0r5Emlpq0VXpLYUL9stTwa0F9kt4//AEY7ZaatNcp9HdhUjLXGSktqaaGGiaKo5hyXCKvtvG1Ocn1mZvoI4hgKrgAAAAAAAAAAAAAAAAAAAAAAAAAAAAAAAAAAAAByAAlTqSi8Ytxe1Nr8gkxEu9Qvq0w8GtNrZJ517yYa6rNurmHRqTcm5Phk23528StiAUAAAAAAAAAAAAAAAAAAAAAAAAAAAAAAAAAAAAAAAAAAAAAAAAAAAAAAAAAAAAAAAAAAAAAAAAAAAAAAAAAAAAAAAAAAAAAAAAAAAAAAAAAAAf/Z;clipPath=inset(11.9% 23.33% 10.71% 24.33%);" vertex="1" parent="1">
                    <mxGeometry x="343" y="44" width="178.02" height="147.4" as="geometry"/>
                </mxCell>
                <mxCell id="28" value="Ticker Symbols" style="text;html=1;strokeColor=none;fillColor=none;align=center;verticalAlign=middle;whiteSpace=wrap;rounded=0;labelBackgroundColor=#1A1A1A;fontColor=#66B2FF;" vertex="1" parent="1">
                    <mxGeometry x="410" y="10" width="60" height="30" as="geometry"/>
                </mxCell>
                <mxCell id="32" value="" style="shape=image;verticalLabelPosition=bottom;labelBackgroundColor=default;verticalAlign=top;aspect=fixed;imageAspect=0;image=data:image/png,iVBORw0KGgoAAAANSUhEUgAAAOEAAADgCAMAAADCMfHtAAAAgVBMVEUAAAD////19fVAQEAXFxcMDAzr6+sFBQUYGBj7+/ssLCwRERFmZmYUFBQaGhoxMTHi4uK8vLxUVFTMzMxubm6bm5uOjo4eHh4nJyezs7Pv7+/o6OjGxsbe3t5FRUWPj498fHylpaVfX1+Xl5d0dHSrq6tNTU2EhIQ5OTnV1dVXV1exPJsLAAAQhklEQVR4nN2di3qquhaFAw1CTEO1trVirdVe7fs/4M4NCBASAgl2r/Gds3YFZfKbK2EyBLFeKIov68fv268bnX60Wy16HfMhe6TX89txdykiVJ/8QiUBWjxUrB+ewf9J+OvxgCpIFVFDiKLNQ5jTSNIwx5X6+oxRF7FDiNDuJ9g5dBB9Ix8L1EZsE6LNK0hhHurLbiES4jtScpLluNAToviDfq8YQOw3rnIGKlGCE+w90s8lEoiFhjDaJCwuISDzHbeSiphmOESk90YpqoTRI92NIcwICVaGCiIhNBBMAoS4F61x0SZEbyw+raJJGrTPkwcPUkWllqt6dKwJ0ZmFTQgMWEUV4QQGqaJSF9QhjCggSbYgxyGrqFRKI6VZmCoqVZViScirKKGAoYdlIcgiBQ203aMGYfQO+DcLAQwZthTGafBIN40yRC8sLMmTJJujBAmGFDF0pI9ILUO2hX6necCGUSsl80Rao4oQPbA+nHZscI5uNElpFDJHa1iUhKyOYpLhDCYzELIqCmE6x3fJ6yknvAFJTgswTbLwdUdGCjlQlJEyPipSQrQDIqIMGnRGgxOSVNOasJEwAfcRJ4yWKcGE1F9qwBGRJBjOEwkmCSSsEAFrhbTVk1SpNsFqEIasy1awgiFizsRaIiW8BVv+SlGowCmNlDe2BEPMk5R11wtKuGCB2w0/WOA5I7F/PxGg/QxFzNv7g5ViZ9kiXCmyf+4jEN3ywJ0wwQLPF4lrD+Jtz65ZrjHCR3oBl+sEni3SO1hfJ/BskR7A+3UCzxbpDnxfJ/BskVJw6xQ4IaHOpB0JE18zqy+XwBgnnZHTl5qRSOLty7xxCQzZ1NlPXEskkniLZCNUAicY58Bb5TFFopc6OfC1kGMlrALTKprhoFeu5bFp8RF/Ld5OWIpV0ZlWqvxVUTCUMGV3pLKQVbRUAuiVa+atioKhhElOO9Ggq/BVpC2N5G+oAIPLEBIQbJxoKKFX536XpQcR0i+W9jJzNEK8xWmOZyekzZ7gsDcVpei3SIjnWzZDCFnHvZ2lG4VsScVzJDshHQMh68D1e5/vtHpe3i3Z//V7e/TDFpBg6nnB3z6nYfe9SV/vtom0KlC0QHG80O/t1eGZhvN9+8tKyDJPCOjpZs49p7qIKWUUOwJG0X4rp1AeKS2EGBpXwx+051ksiqKmc+Is+iKFIqRVlKXX9CJywrilRYGK/V553X6DTiiuStEzopmQ9WuNht8KzAhXIG+KbPMt3CobYG7XErxIxMwzopkwzZNWF9MMLAj96KWsqIku0nhZ2mG6Na5RhyCMFn4rqq0vTTvjoBrYN+Hnyn9bHH59WEkJ7JvwHfAhtMCdSOM1glAJ7JvwEZA9R3xuRxqvMYR1YP+EIN97boujCKvAAQgB4IgxbEYar3GEZWDfhCf2BxYVddmINF4jCWVghXDyd72jxxL3iaC5LTpeXY0lFIFrQkimrnJ8K9NS3qPGuRKpFsR9tzz1Gk3IA1eESTI54/eGUX2Iv1M+Lsa6iopT3Het2nPc8adEA5eEaZJPz/g9KIWIVz0VlUZK3BI3JxDSBiEJaRUlZPKVK79Q2ZSvRI/aHjQgzjFxW0ydQljWUlZFfSyuXBjUoXxk58BL8U68KO8s0Crq2hi8EELsJeM3R3zmvT7zdpasVEQukshEIBf5IKS11M8q/Bcqry8QU6RWVPb8yRYQ90g+CP0lpf/suwsbVS4FzMGYx6S8lKFT723WqUNY9j2EpFk6YkTyQagCPjzZ9fb0Tf/H/+oeEj9dYh0hW9LsXqwO0HTCvbrhs1vLuqIEC9niXrSHTbEQOFaErAvNR80pvNTSWgOWDmNEG9tCLhYj8/GfSkKcZiAdl/4+hZCAjzZhzxq4ChgX8aKIJOHBHKEkhHRAgmTcev+UWVvWLcPkc2PWy3qzWW9edi/81c4yiZaEIv0dj+vQJsy86QS4Igx0700QEv602dj099GEhCXD17U0TNqWIEyTKenvYwl5qrhaS4MgVu1Q3egYaSwhS2dutsMQiLIMW0/YuEUa3w63MG32NAEQBeG23cU4RZrQl+bt8dA/oqylkxLtJxCmnRGfBc5gn+h1gX67+qJ5nfkUofqaWJUDouc5zbkwTta0Qo1XJ/VwR/ohLaEDomdCw537/gld3GBUM16fUNRDOBxxNkLTjLWB2CCMegkHI3omvEU9EIO1Uw9nIhyK6JmQymcSsZFwIKJ/ws6SxsgZM5OZsI2YtrtirgCE7aT01G2NWpWFsBUJsgf9O+8JQdhKf0/w6NxiG2Er/R3r1m2DECqBCUtKH73ebyWsI6UEkkz3iHgYwjopPZ2UlG4nrCJBXoSaNwQi9KQBhFKpvooC74TpaT1Nn42HeAYSMmcr0udi4JnwpT2AO+ugWuENJEy3aQ76btnMv5poVhHdK4cbWoYJ7F/w90y4mwpYrNSiGESYkpylv/ft9t3TfDxO0fHx2FhfHERIu2pimFP8A30pZEu3/XOKQIQko0Hh+Oma1ABCmGH2wFn/fD8MIUnYZG16UrqdkHYwMEmIYdYUhlCkv4uaM4XSTshWw7GMoY8UgpBAqJi+TVmBsxHCAZECENLJU6La2k1AtBDSXrQxVdNGCkDIEqenLMMrshBuk1YOsy5SiFqa41bCxGhEWy3NoT3SNEL2zIzlJucksWw+/Y1wqQFmMM6Er4eJE7Nedea03XU79NQ+nc442EF0JjxYHvMZM/dGPWuQcXe73ca5jehMuLAs7o4A7P9Qd8e9/QxbiK8jCDXVZzYNIGzpxnXOwQjfrmI7/xOPJHTsyhnh2TmMF40ldERkhGbLl35N9GQfTdgOjI2e7FMIJ3qyjyds5vdbPNknEU7zZJ9A2Ahs8WSfRtiM5Gh4PYWwDsw82Y2G1xMJG57s0M1qgxLGFk8kjcoRv3xw0+rJPpVwgid7TCc5v87xmnOaAZ7skwmFxniyx3FcjC9DpkGe7D4IR3qy71eRK2EKm4RDPNn9lGE2Jv39Eu2de5oGYYqHeLLbCO934vKq2Hy3d53LXS9vyjLA8sgyvoesOxb7qHBsh3RcqAkHerKbCZ/VJGFu1l/pvFJ31W6G93zDcsDp7pFrGbIV25pwoCe7kfCudbnzWe9q39FYlcv3gnDIjy+xJH4nQr6IUxIO9mQ3EnZyvqqa2r3thiTicMLDwo0Qp6yxS8Lhnuwmwm/RzE4ftw8nkR1V5uKfJNbm9P64lgUtl7CGE9J26EJIePp7OWsb7sluIuQdSblyJFqkeGTyS/KJx7TSR/FSJOk5lCFyIZTp74LQxZPdRFio55rzMxdJXJeyVSbCZ0P62vC3Did0mpficmBnhPRvdfQ1j4gGQsyrXzUmb9ivL/Dnsu44xEHxZD/yLfzh9DCE3JOdM7ErYCdPdlMZ8ifP9uVyWFbd7HznEGfVkz0WLTENRCg92ZluhFP6cE92E+FaNrfv1pofr6RFw5NdPCDFmkSYMsyr9HdWS5082U2EN9VQsFi/PTc/I54jrCIJ/6UvWl8CtcNtOWcSPU03Vbz3k8bx8BQpurzJreLp10cRSX53r1VPG4iwSn8Xo4WDJ7t51tZAjGLxQ4pL/kIO/vK4S07NFul/AxGW6l3z7kO0zLx/m7c1+PRTdKVvjfflFWGoMizVv6rfg2i9evo6qcne7FrgWUO4/AOEPYj09JFtRRi+rctHltnUjJcXemy85St4OyxlujOjRVxEaNAV8I+8mGA3RvbsHkvT3/5D9qXXJdT2qMZaenN7rIfCj6qD4VNUaXmxFHMeMXSyv65KqPFkNxEWVd8ixGsqm16XcxqmXXRgH+db+O1j/RUw1qTdhiDserKbCDdlw5Pal8Pgc83DR44NPNU9rSzD5oCl9WQPQtjxZOcF1UN4bPaZ4gKCD4nVtQV443/JK0T5Qymilto92cMQtj3ZTWUoiqoc2sXjMwWffosZTPTCkE7V/VVRoe+rFllL78keiLDpyW5sh+VazH53fPoUI38sV2rkNW+0Pr49lXMCmUYiCAtF8S3Qpr+HIiwlPdnd1mn2ZXe8bu+plqnuu3tu9SnNIQm5J7v42QAj4VJFjKN4X6cJnLogxRvboSF80HuyhyRUPNnNs7ZUXTTcr9WE369Lg17856uHUHttE7SW1p7stnnpz/uGn368eWznvry+bwrazaDV7kEWKZsF/Kx3Da13656bEwEJVU92T/eewA1bAn9z+kg4woYnuy9CAJ72+/Ymsyd7OMKGJ7s/QjqAtjeYPdlDEbY82X0StkS7MqMne6g5TcuTPRwhZpFMnuyBCNue7OEIZfo7B9RSBiHserKHIiRm93emINeHbU/2YIQ8kvIUrw4xBCHr1xp33IzXh1Nkc39nCkHY9WQPVkvz9m9JdRGDtMOuJ3uwnsbs/s4Upi/t2NyFyy/tjPTzEHbECB9SZiUjnWiyTLGkybKWCU1W/SeXb4Cqg434bN51ruHbt7lqYzMnoUH9SemG5HCH9PerExrOtR/RJb9/BsKVKb7xXPt2Oj3A4PxsgTvhb4Fq8aBoqAr7W1rqHP9kP8HJhAAsme7YP89s9XO1XQ7V8+B3Cm3ZYvklqzfwdYa5PNm56mfXWNaff+meXfv/erLrJAj/gic7SLLpnuwale6eNeL/2pNdo7KW/iue7F1V7bC8s/A/92TvqtXTXM+TPfPkyd6RSpjCf8GTva1GGf4jnuxNqYTX9GQP0waZFMK/4snuWTXhn/Fk96w/6MnuWX/Qk92zviPVk31ce5/uyY4WDlqtDqvqxX5ve3sc/QVPdhcV7FdKHX+E9bqe7LdugOwHghvrPKblqZrwSp7sW/4ckeZ3YUxaMMs5VQMIf5O01cXM6ckOwK2bfs/n5oaz/n21luCqnuwz6Yqe7BMCT9NsnuwTAs8WyS/hX0T0TPgHEX0T/j1E74R/DtE/YSdwqEWcWTzZhwSe4snuFimEJ/uQwFM82d0i6Q2v3e/HuQXGhGQh1vs7kXo92QOZWlWe7MkkT3aHSKyKatfD3wIGZ20/wYEW/NuRej3Z33Ub/SgJXkVLsQzfHk/2Z7DTbPWkhDml655f8i6DJ/stuISLm2CDU7pXGTzZj6AINlaRLU4zzfjkXUZP9jUYkaAyTCQBFj8mb5FMnuwrMCZ/Y5BYs+9PSvcpkyf7awTiMAu6njzZB8jsyf6IQIxCVFNfnux2WTzZVzElXPfsnCJfnux2mT3Zz4gSxsj7KQxISvckSMye7C+C0Hdf49GT3SKbJ/tdFDPCOB7ypLiDPHqy2yJZPNlpEXJC5Hvm5s+T3RrJ6Ml+ZiZHvAy9d6f2pHRfMnqyH2pC37fiuxkFwRANnuwnBigIY/TZfp93zb8Cdx/FNWEsbdWCBg4eoYrEEWERq4RhZja6wLPpgpqEcWy35J+qWRE3ErAmRIt/CnEdxW3CGMVXqKihkDcVlkJIGYUzF8Aw2DXBNE/2oXqmA+FCRygHDYsn+zRN8mQfqNuCtcGFjjBGq1erJ/tETfFkH6adbIILHWGM0OezTEEKpQme7EP0sS87UYnYIqSMRcA1Yi5JSKuo/y/yfInaQB1C1ql+Brkh1dQYT3bbIb8PEergaAhZXb0cg46OzJMduHuym7T9WMed8uslZIxo9fL4EGypjCWl+xsM7592h1hTfFz/ASvj7DhM85XMAAAAAElFTkSuQmCC;clipPath=inset(16.07% 19.78% 16.52% 19.33%);" vertex="1" parent="1">
                    <mxGeometry x="584" y="580" width="145.16" height="160" as="geometry"/>
                </mxCell>
                <mxCell id="33" value="" style="shape=image;verticalLabelPosition=bottom;labelBackgroundColor=default;verticalAlign=top;aspect=fixed;imageAspect=0;image=data:image/jpeg,/9j/4AAQSkZJRgABAQAAAQABAAD/2wCEAAkGBwgHBhAQBwgWFRAWFRISFhcVFRsVHRgWFhgWFiAdFR8eHSggGhoxHRYVIj0jJS0sLzAuFyA/OzYuQygtLisBCgoKDg0OGhAQGi0mICUtLS0tMi0rLS0vLy0vLy0tLS0tLS0tLS0tLS0tLS0tLS0tLS0tLS0tLS0tLS0tLS0tLf/AABEIAKgBLAMBEQACEQEDEQH/xAAcAAEAAwEBAQEBAAAAAAAAAAAAAQYHAgUEAwj/xAA1EAEAAgAEBAQCCAYDAAAAAAAAAQIDBAURBhIhMUFRYXEHEyIyQlKBkaGxFCNiksHwcqLh/8QAGgEBAAIDAQAAAAAAAAAAAAAAAAQFAQMGAv/EACcRAQACAgIBAwQCAwAAAAAAAAABAgMEETEhEhNBBSIyUUJhI3Hh/9oADAMBAAIRAxEAPwDDQAAAAAAAAAAAAAAAAAAAAAAAAAAAAAAAAAAAAAAAAAAAAAAAAAAAAAAAAAAAAAAAAAAAAAAAAAAAAAAAAAAAAAAAAAAAAAAAAAAAAAAAAAAAAAAAAAAAAAAAAAAAAAAAAAAAAAAAAAAAAAAAAAAAAAAAAAAAAAAAAAAAAAAAAAAAAAAAAAAAAAAAAAAAAAAAAAAAAAAAAAAAAAAAAAAAAAAAAAAAAAAAAAAAAAAAAAAAAAAAAAdbB/bkAAEwD7dO0jUNTmf4DJ3vt0max0j3ns2Vx2v+MPF8tKflPD6c7w1rWRwptmdNxIrHWZ25oj3232ZtgyV8zDXTZxWniLQ8nZrb0xWZ7QweEAgAAAAAAAAAAAAAAAAAAAAAAAAAAAF64P4Ry+t8OY2JjTy4lr8uFb7vJETvt4xM22n2TtfWjLjmZV21uThyxX4+VR1TTc1pWctg57Cmt4/KY8JrPjHqiXpNJ4lOx5K3r6qz4fI8PaAWvgLhmmu52183H8jD25o7c9p7V9vGf/UvUwe7bz1CFu7Ps08dy1/BwsPAwopg0itIjaKxG0RHpC7rWKxxDnbXtaebS79mWIme1e1Lg3RNQz3zsxgTE7fSituStvW23j7bIt9PHe3qlMx7+alfTEqhxfl8TGys4Wjab8nI4O974kx8uMS/aJjfrfyjvvNvZA2axP4V4iFpqzx5vbm0qHKCsEAAAAAAAAAAAAAAAAAAAAAAAAAAAmAa18LM3TG4eth7/Sw8S28f03iLRP580fguPp949uYUP1Wn+SLfuFi1rRsjreW+XqGDvH2Zjpas+dZ/2ErLhplj7oQ8GxfDP2s31r4ealk7TbTbRjYfhH1bx7x2n8JVWXRvTzXzC6w/Ucd/FvEqlmslmsnbbN5a9J/qrNf3RLVmO4Tq3rbqWr/Da2Dg8LU67Ta+Jafffb9ohb6ExGNRfUomcq2VvW31bJ3Ku4dDCOxPTMR5YzxjxTmdezPJEcmBSZ5ab95jpzX85/ZQ7OxbLb+nS6mrXDXn5VrdGS0AAAAAAAAAAAAAAAAAAAAAAAAAAAmO4ND+H+jZumVpnNLzsbzN8PFwrxMVttPbmjeYnaaz2WOpitx66Kvez059u8f6lpEdusLZRJDwi1YvG143j16sTWJ7eotMdS4pg4VK7UwqxHlERBFYjpibTPaYwsOJ3inX06M8HLsYflmsWuBlcS956Vra0+1Ymf8ADzeeKy2Yo5vEP55vabWmZ8d5c062I4hyAAAAAAAAAAAAAAAAAAAAAAAAAAAAC5/DviXC0jM2wM9fbBxJiYtPal+28+kxtH4Qm6eeMduJ6lA39acteY7hrMTFo3rO8eC6iYnqXPTE18TCRgAAABW/iBqMZDhjFjf6WJ/JrH/Lv/13RNzJFccx+/Cd9PxTfNE/EeWLyo3RoAAAAAAAAAAAAAAAAAAAAAAAAAAAAB1S0VtE2rvG8dPMG4cLZfTa6bTE0jFxPlWjpS2Ja8VnxjaZ6TEr7VrSK81nw5vcveb+nJH/AF7aShAAAAMe+Ieuxq2r/Ly998HB3rG32rTtzT+m34eqj3M3uX4jqHSaOD2sfM9yqkoiagAAAAAAAAAAAAAAAAAAAAAAAAAAAAEg9jh/iPUNBxZnJXjln61LbzWfXbwn1huw574p+1oz69M0cWhqXCnEmNxBhzadMth0iOt+bes28q9Imf8AC219mcvcKPa1K4OrcrEloIACicfcX1ymFbK6Zi74s/RxLx9iJ8Kz979vftW7e1H4UW+jpTMxkydfDLlUukAAAAAAAAAAAAAAAAAAAAAAAAAAAAA6pMRaJmu8eXmQLhoWHwVntoz0YuDieV8Tek+1or0/FLxRgt+XMIWadms804mF603hLhvDrF8rkqYkeE2tOLH6zMLHHrYPjyqcu3s/ynh79a1pWIpWIiO0R029kusemPCFafVPMuu/YOHmapr+laVWf47O1ifuxPNb+2OrTk2MdO5SMWrlyfjDPeJfiDms9WcPSKzhYc9JvP159tp2rHt19VZn3bX8V8LfW+nUx+b+ZUjdBWKAAAAAAAAAAAAAAAAAAAAAAAAAAAAAAASD9cDMY+WvzZbGtS3nWZrP6MxaY6YtWJ7ehTiXW6V2rquL/fLZ72T9y1Tr4p/jD8MzrOp5qu2Y1DEtHlN7bfluxOW89zL1XDjr1WHwtbYAgAAAAAAAAAAAAAAAAAAAAAAAAAAAAAAAAAAAAAAAAAAAAAAAAAAAAAAAAAAAAAAAAAAAAAAAAAAAAAAAAAAAAAAAAAAAAAAAAAAAAAAAAAAAAAAAAAAAAAAAAAAAAAAAAAAAAAAAAAAAAAAAAAAAAAAAAAAAAAAAAAAAAAAAAAAAAAAAAAAAAAAAAAAAAAAAAAAAAAAAAAAAAAAAAAAAAAAAAAAAAAAAAAAAAAAAAAAAAAAAAAAAAAH/2Q==;clipPath=inset(30.36% 37.67% 30.95% 36.33%);" vertex="1" parent="1">
                    <mxGeometry x="594" y="55" width="141.61" height="118" as="geometry"/>
                </mxCell>
                <mxCell id="35" style="edgeStyle=none;rounded=1;html=0;exitX=0.5;exitY=1;exitDx=0;exitDy=0;entryX=0.5;entryY=0;entryDx=0;entryDy=0;fontSize=18;fontColor=#66B2FF;endFill=1;" edge="1" parent="1" source="34" target="33">
                    <mxGeometry relative="1" as="geometry"/>
                </mxCell>
                <mxCell id="34" value="Twitter Developer Keys" style="text;html=1;strokeColor=none;fillColor=none;align=center;verticalAlign=middle;whiteSpace=wrap;rounded=0;labelBackgroundColor=#1A1A1A;fontColor=#66B2FF;" vertex="1" parent="1">
                    <mxGeometry x="637" y="14" width="60" height="30" as="geometry"/>
                </mxCell>
                <mxCell id="36" value="" style="shape=image;verticalLabelPosition=bottom;labelBackgroundColor=default;verticalAlign=top;aspect=fixed;imageAspect=0;image=data:image/png,iVBORw0KGgoAAAANSUhEUgAAAOEAAADhCAMAAAAJbSJIAAAAjVBMVEUAAAD///3////g4N709PIYGBgNDQ1kZGMXFxfMzMsJCQkEBAQKCgoSEhLn5+aFhYRcXFxubm6rq6oiIiIcHBzx8fD5+feYmJfs7OvX19V+fn3R0c9YWFczMzOLi4pqamm/v75JSUicnJuQkI+BgYAsLCtDQ0Ojo6GxsbC6urhISEhRUVB2dnY8PDs0NDOQnJ7bAAARKElEQVR4nO2diXbcqBJAJVpgLIS8aLG8O/E4tsdO/v/zHqANAVqbUr9zMpUzGcfqbvqqoCiqKBQQFpxMSLxPMydETP5D9CQn7ajJPs3YiIzs0rJTizH3r1kLkWCee2/FLRYioST336tMRBxwzr23MtK2gSjaJgBtG4hY8GH/rbjF0CJU2xoioZzmbDcdDswNwZTnCUzbHWJMA0wI38vUSEnathMqhkcC3bZshO9jxC0RIxBkEOrCKMc8oPvMxMOWA5bHuWgbVIOYiFkCc7rfGOyFctE2p8Btk4xxGsQn0KAY/xlh4JNwzJm8jdDNuEUYuIQBT1GEytsI4DMtaRvnAhHDusgxlgMxOAkgEx0HvvNIM51kJwEMEtG26D6gbcRE6pCT3Zw1TRIa53FAE1BDk2COCcbg861LYhxjQjFJILspEwsWocMYn8KQCv0JBTLgtuVEGydBY8v2XfWrkdH6iQzEEAhTPfRjdgxsiKGBB4MfInajTDWhOtV+iFit6nVPHyB2I610bAyCvRZPVNpPw37716I0M9aicy8tCh/DahsAMcP2JLEXYp7b/cV/R2Wu6NaOWrTEvxZj17jbC9GlsNOFineT/9I2vuTvzGnsJn+BFv8CxBOam72oHVpkALfc+sg4F+7k5QEtkjI0f1GV6diL0yuzbdPcxDnP4fOLWPzmC6FwmUTl4J8oRUVRjLwWoQujbVOLom2IxI2ZfCM8eFkKaCAKPRWFoBx7MXqaRpRtQ8RzNESGuVzyHJYT6ohRmhaHsBrToUQ0tah11DjHXIXlIRFZHlAZkVtDGEbtD2IEVkVZRVMvtrXY3V4ZkY9hUzdiycqISr41hMusTScFiqKoHLk4qsVWeEI4A46VMSoDOrQjLM9XyefLy8v9y9jVYlSLddtYJt9g06c05nmQcypvoyJEqc+PP5/SIpWJP46BQ4568g2U0IW4R/It4HGffIMltDsqF/MENGKM5W2kje0GJjS0GNfJN2A3VdzAnHQeKTThUIv5Xsk3lnWzLzjhQIsyoprBJo0YUfeRdDcSnrDToky+xwHnoIk/lnNMhMvUJ9p3IGy1iBOV+INN8udywhXzfR9XBSD8tBxBpUUZMRY2BjjJr5JvbY6fyaYACH/arq7UospMdZ4MiDmNRRfhZvINgPDK4cyj1wA++aZMDKeDBBiDIAxsQKVFSnRfFCDIiOUtNLwJAkJoD8TQ4cDBJN/sDQwQhH+ca07LgfMfgWOZY6cLBGFw7UacWPV7ElfyDYQwuF2mRYDk2046DLA7RIUujdftkdOAIQxiXYtdOAedm6/bIeDvJuQf17q8X0/J+7vLl74J24hNH5BDB+tlCbgW3YTZMLo9HZYqS+eKlv2swv7dY4TwOY2G0Ggm14fRZMxQvrsa86V/fD/dvN4oicYIwTtqQ2hEvnTCcgRMe8WCqIQyPU5CaC22vTQeTCSZHmqZixmjIwmBtdiNw0FOIwujFVIdSehCTLzt4u4tzRBRyuPbn2yRLGhnktCeF2XlmydEzZaayTcu7q03Wz5N6Ei+edsErM8WkJVvM4TmvOix7cF8aFS+Yeav8mWOUNeijObkxFfbwxm/mzQS35Vvs4RW5ZuvATLil3qvfJsn7ETQceLv3joJGZXa9BoTW0goN+LHOQmov7vrIMSEZ2dSLrfIw9fDl/jbvD0LCSknvivfHIQkC95W5oT1DPAhLCuEzDlyIWFT+eaz+9iEjDOaz3lq41KFqUzzm27OMkIGUPlmEcrKt+BxK2GZHoowrcpthITK5Bv1GxQ3CeVmf8yyrYRpKLeglOEmQpjKN5NQ+kokz+bHm3sQFuKvVC58t4xDWfkWe698GxLWlW80yZ4utsn3xcU/d+KvJ3M+WzDj15Vvse8U+IAwoSr5RgAq32YJYyor36j/yjedELLybZZQxnJxDFD5NtAhYOXbHCEDq3zTVsAYA1a+zayAMQVLvnWEDINWvk0TYmkDhpVv3hA7Qmmlze10HveeTRJiaT8NG+pNi70OZeUb3Ha6GR0SZrXtK6fRj0O98i2vDmvl/PxW+5cVfpuxNM7KNz9a1Gyplnzb4tOkg02qa702uMo3fbboK982rS306P96vxSs8s0dxVhJaGc2Nq6eTPGhxXqP8MGYF9b1UlduauMK2BQPyTdFGKVmJcb9ij3Rru3Q9+YqdiOhh44qCQv/OWBLthIe31EFYTSf5T7eu9lMeLQWF+bxj0bcTnisFpfuVDi28u0IwiPNzeK9GBZiktMVy/FjCI/zbm4X7zZxVL4t92PZITyC8KiOer58P42j8m25ElNZFraZ8JhVznIdDoWtbDVFAnE74Up5kDmJszP5v4d6fBRni+S5++nq7Pn5+ep54rWGFPWs9HDWtf0AB3gvvaoIlWWkQpxqgMCL1o5sWyj0HgrwQTRWVlUlPJlV7rUvKdMojVAqEKG0eCU+vapQWkxVgIJJGlUpqtJUtI3Mcmh/hMVtKDRYzm92ApDytiybrZmQhGU6WcILKVWYCkRYwufqINqoTqLBSCXfmvEPR4jCw0nwhKSyyL2NHwD20jA6nAYwEkOjPLQxD0AdoiqqTsBXygS4aLudpMAIz6q0KE9AKOfBMhX+ads2oA7L6hRzvRwZchND1zacDpds+wWQokJay+U6wlUhhr60bMcpMUqFG6MPjaJcQRjjVRtQtOK5/RDFNBFVhd53onI54coNNnp54F6IqXTUjDqaaDHhmmiJSbgfYhnaJ6E8L/3KrrTNUsIxRHNhN33J9Urjd4dDZBVALyYM8lVaNIpYXYgIFR93j/LFX6+34eD1qHx5+iWv0Ieb7tJPWTPyOuiF6EX97r77XWoZ8DW2dKulGUFEhV4p+GNwzsWHnnL5VV9qlrIXgw+uv5NW4GV1Uki/dBoRvRgbhu5Qd//NL6XqttGL+vlR0xK6rX+FnGxbCFfMiHap9RARXVtvuWzegu6sS+8Ksf5ZU1hTTKluwOiBYKsIVxgbRzG5/h0ahQihb93WjJu6N7blg28/vn63l+Toa8i1bor6i6PmeqUOlyO6yuX7ftSFTu9uxQrk9lvjaEtAz4RZRGF6E3RYbdisN651J5VBr2jURVw5DpcjughDa1l6Ky29+O+l52gU81xPAQj91LDe1I+dTWo66QcKJ6JBay3NYkQnYduX2qh0d8hZOyqFllGlfuqr7etOLG8OelU/fneXFHFcTW4HWG1LlyK6CZuO2tz8J21Eyenh664n/KeDv/jz78Olipo3N4a0V+pOeja932H9bGEfk8yw4/jrEcJai80Og/rmV2klZ8DX+6rpmPUHdBW+ZX1apLr0r7rUdFN5nxieO7Fww3xoaREzZte4jRFKRFSol/xSo64qlSPS+15tkDq+Ow8NJw29Dz77t6y6CaYBN834JiIVN9Lyd0YJBWJjWO7US1L1R/9KWrH51+t9pEEKEyzrlnLlfKpOig0fxw/hEJHIhaN50P4UobCoH+olN8rKy1jHMNyBvvUPwt/nmvP9Q+UXVccUdkceE3MPQagjYi7+UNtlnSAMy7qzCUdFrMirKjXcZRQahyL87ijkvSGNNUUZJ5y8TfNt9ku7imUeM+rMf08RNlb/GkVRmLrm6nYS7KQ7UKgMlO9Yqk5KxPB4nds5dqTnzSmh7v2ik4S1o3JdRkWq4rf2K6L3X4OPa88xaVZ7opuKD5FHMs6eG3oMIQ84DjLifmDQJGHdS1/T8FCU7pCjMKKH6yttEmrcocZIiTkQPcoNx1+zm/+OIsxinNjPm1hAWFuap6IIuzOCnav88PDe+t43zfWotmmyk3IxJN9hCUUvcWy6XUBYzwdnqCra9TtKb8NBjrqjPNTdta0CaxYYn6KTyns7fsTw8YSMZ3IYjtW9TBEqeyEk7cP+wvg8XtyXMpp7/nFz99yfH4SquomWUC4wmHDMf3Mx/uc76RGEmJDccSLUIkJU970X7cQV5cfxA2rWVQ/aNF/7ON3S6016UfRcTRsfgIR19dn49WnC2tT86hX1Wb9LzgL1QOu7n5jlm0v1P59U9dkf5SjO8m0nZNKLmSpmnyQMa8dUTGbN0KvXE/U6t/ZozrqhWA/arlZRLDBkWQqTt/d5XoVbfRpZ2kM5nag0nSKs0qJZut+pzTbovl7aqsmtXcl/N7uez0kH33zlP0R4UVTuBVtyEPo2Qi4niZhMHZsx5ZdGKEqbWYBffXy+fzXvedKXSEH+z+fLS3dN67U/xThM5Hn5fEl2axuhPHqVk5hPxN4mCGUCunTsPfvdfCXXtjR9sVzI08TkZtB/Fqhw0/qQ02RwRq9zShxfH1aRWg+mb8Y7HtuAfB+H6+Ry8J3bXU5zy4qthMLTxol+6pzz4UgjhKiKVB5aup7fwzf0GQd0bizGLgYx/8YlCh4X8G0hpPZz11yxmxFClaJttvKg2z5pcnmvu22ofNfC+leGd91a3tllxUZCngfWRO9AHItEHcTX7zYRoFA4ME831+el6ZaKmf/l+vXi6f3z1k5MoVIdq7SEb1Mv5Tm3qvVtxLFeGh0qfcHbbJR0vXIs77ZStthS7nBlLMRRS+PcRwSYQt00W7gWTKa5GZ8tnPuI4BD9ZdcMLToJJ2boBYjbdq94zB8OEV2Ek3tNZxHHky97EQ4RHYQzm2lnEDcC+s0B64g24exu4UnErYCes9waokW4YDv0BOJmQN95/B5xen24HnGz+N6p0CFuIoRA9L4Xo0XcRuhATNPjNnH6323SIG4ktPaMyL2iCz3QvQgbxK2E5qaUNEyPq7oZZrI8Im4mHCCKxWSKRgL/JyRUiNsJNcS0SIvq/24cKkQWPG5c9qi3NRtNCrmZsjxuAYXQIwShlLtUOwO4aW7NscFRlKbVIUqrNW+x20ntLWQgAnTqvCVHVTqvFpl8I4xzoOfMOKUljDP5dE4+Fe70IITSbmPx3oSEY/jHdqkTQlkTDdibMItZDnDg3UAo53nQPbRrb0KWJwwYUJ7apyXf9rc0GfTzHmTMOKaQz11zSkfIKOwopDlXR/VCPnfNKS2hfD4oZDuUqKOySf+k2r0JEwL7lNwslsk3pp3UvXsvbZ55ADMfijlCz0yplcapfBoQRVIS57GJuBMhrkyvDcCrUc+OxIPuwWCeu2YLwbZf6vXwUCW8frzjQGCeneeQzOF5+++oPOf2Y8lOubbw79u4km8rnsv9ufA0OqeouLG5egLoqCPPXQsXHVBTn2djiOt3LgldhACII8/OmxVPyTd7BQzshC8mnMxNrEi+Odb4oA6OkiXbs2aSLzOIWuLHsR8HYl4cyr/z8bLZwPYkog7YbhsbCLgWLw9zBmbejEyYG92IHcwHPNayw1g8tfi3qC5ZUaLpX449dnKZ2IgMQzxCwClWR2WYOh4Le6Qsq3wDElOLlDGAlbJV+RY7Kt+gxDx2EqZts/KNBt4fpzEuGiLjMuAJ0naPyHKSc+qofIOTvm2ccMqBbEB3H3ks2tlrEBqNc8Kox+euuYXzsco3eOEyrQLbdl35lrgr34CFMxlQ5Ry2bZ6x8co3YEmymNMAuo9yLfm2t8iSLeh7O1P5Bt12wnLo8T9T+QbbtrDgMbSHrCrfljzgF6jtOIOeoxL1/LrTWBkZzR0pXvYlCyrf4AQrR4bCJt/qyrfE2wOj14iYoOQz3zhs2wsq38BEnsLSVL5Biax8G6w6d5wSGRV9dLCygbjJwtMeVr7tGNjAcUCHyWGAtvmyyjcQUas0w8JAZKYWVb6BiHwyp7Xghcgvcjxf+QYjce7YgwKTQjVlTy1aAtBRHa7MboguN2qfaev/LlTsX5zl0nvJPm2fVIv7rAH+go76HyKs/A2Iu7TiQKSOYydh5ERapHHgP8U3IqdBxMGeybf/ARuD8WoNaYWPAAAAAElFTkSuQmCC;clipPath=inset(13.11% 14.89% 14.44% 15.78%);" vertex="1" parent="1">
                    <mxGeometry x="719" y="106" width="52.4" height="54.75" as="geometry"/>
                </mxCell>
                <mxCell id="37" value="&lt;font style=&quot;font-size: 18px;&quot;&gt;Deploy&lt;/font&gt;" style="swimlane;horizontal=0;whiteSpace=wrap;html=1;startSize=67;" vertex="1" parent="1">
                    <mxGeometry y="808" width="244.34" height="289" as="geometry"/>
                </mxCell>
                <mxCell id="38" value="" style="edgeStyle=none;html=1;" edge="1" parent="37" source="37">
                    <mxGeometry relative="1" as="geometry">
                        <mxPoint x="109.22727272727275" y="86" as="targetPoint"/>
                    </mxGeometry>
                </mxCell>
                <mxCell id="40" value="" style="shape=image;verticalLabelPosition=bottom;labelBackgroundColor=default;verticalAlign=top;aspect=fixed;imageAspect=0;image=data:image/png,iVBORw0KGgoAAAANSUhEUgAAAOEAAADhCAMAAAAJbSJIAAAAe1BMVEUAAAD///8BAQFSUlKPj49sbGw1NTU+Pj77+/tCQkLj4+MLCwucnJxXV1dxcXHm5ubX19diYmLPz88sLCwSEhJJSUn29vbt7e3Hx8doaGhcXFze3t52dnbw8PBPT0++vr6ZmZm1tbWBgYE4ODipqakaGhqlpaUkJCSLi4s2FXikAAAGK0lEQVR4nO2d61rqOhBApxWkoIKiFhEEQWX7/k94cuklKeneDWRohjPrhxiMTZaZJpPK18JhcOXABq6dG0ghvWaE4bUjx/C6YUP6sCF92JA+bEgfNqQPG9KHDenDhvRhQ/qwIX3YkD5s2ERdIZev+oKydb38b6Vm0X19Og5DNCIxBHgZft4j8DmSPUGQ9DIUf+WfXYLFEFAC1c8Q3nM0wSSZogSqX5RuMkTBJFkDwtnoZzgR3cCUnCIEqpfhWuplyWwSmlmtGBwvwzfVi2H4XqwRR7G7oainAvSAMKfv7UANemwvQ9WFZfDJIDUNpWLQo/sbDhEMVZRmi+pcDNmC13mIdBoWhovbXE/UYf+GcRhO5YE/4DVHCNQ4DNfa0FAMN4xRGaaVYsBAjctQKMozMQvZSlSG8ttRVk83QYYxNsMUxsa5GOLo0RkKxSJQ1/pn5xKZoSq9ZiFz1IgM86KUmovG+URkmBUlSzE9e9mIyDAx3hgXM2qAnUachuaMekWGmfmOtWicJRmnIegELkigRmoop5tNmECN1FAFapidRrSG5tJ/1k4jZsM6gTunzRgMwW0oGVc7jZOHMQbDljEMtNOIwRBg2GZYJ3An7zSiNgQAK0c9KVCjN7Su3Zxy7PgN7RzVfxhjNwS10zAC1fvYFAyLdfHEBI6G4TkJHAFDaM6ofsemYQhw+rWbiAzz8U3NqMnzMqsVfYYxIsOueO40IjLs/CEPemOYwtLrMyxjgoaphx9JwxSeFldtaHDX5OXZIiNr2LUThA2LDxG7fmB8hjila9gVNnTAhhZsiA8bOmBDCzbEhw0dsKEFG+LDhg7Y0IIN8WFDB2xowYb4sKEDNrRgQ3zY0AEbWrAhPmzogA0t2BAfNnTAhhZsiA8bOmBDCzbEhw0dsKEFG+LDhg7Y0IIN8WFDB2xowYb4sKEDNrRgQ3zY0AEbWrAhPmzogA0t2BAfNnTAhhZsiA8bOmBDi/+hoU9LQbi0oboHwtGtLEKiW6m7ePko3Wx9bkriTz6373p5WcMU7rYJ7vOfJI9f0N8YzpHlNB9fdYsXNtxdRDBJJr0YinPjAT1ASwZVJy9ruFXn4NvTAx7v36rJRbUuXdIQQN0Eb+7R1ikMVKDc9mOoSu+OasY9geqv5oNGi3eLb6oF7/hRpGUryx4My9JDl9+rFIyv+qGtzYotbVY3S4zEsOMRu1UrDPsbwxtXve9Hi5UI5a18fdKhCYOVKPwCPKzsirt2Q4jLsJkJiA7eyNeZHrhb+X0ucs6nRr3HtjZji1KHYQpq3r9Xrc31YVKH4XFnYjXMknwyK1moqVA9iVMmYEO5jr5BaTir2ba1GaFhkli9lZPpuxSTcSjX0fxH3S1RHsGu524zQkM1SBVy9ZNprOjfrw7XPVSGL3UPXDfdi9UwsQw16Yd4+0NlsyoTqgz/3SYRQ1iWM0qmsjBHlLa1GeVq8bgcaqbTjX43LZ62q/YKteF0WOK8zXPvhl1Wi2/9bgoveru1KsvN1cKV5xAylNPIQJVHulZhWG8ynTf07tkwa43SzGEIoC9b3Re3KyU+hvPltGD9qt4UUrvCZGOeh8OqovNac7RjaK+H+qW67LGClrmU5npY7nV13pY9yt86GIbGih/l/rDTGIIyPMgh3OpzUS4gV7fib2RQi3xUrfvyAiF1w0bmXewtZFfVNbqDM/MmNJdmyWJu790PiR7Yct1/LcfQqLe6bWkzQkMbsWfSD4n7o1bCvTwhZWLTXA9F3+karuTrvmhM/fzeSMXJGe7Evn4xK76ovfv+Q7zMoVjpR2rn/wXvi5nJZDGKxTCtS87VopW0XBp1qXOblzFMiyymejhY+xiGxGnog+cYZsbV2R4M/6iSI5b/gscYpjodqf4Xc0KUnkBmGn6qzPYH7zzcKantq34+kT4rv46eWxSUZ/Ufrr1u5VM1uUB8VtAmSfD/b98gOyr+IhrKhKt3dEqLZSgW7gsP4RG53zzjaSiqvv27D6hMRn5D4juGou7TPO9NL1vtwfujZp5RKivf3fbFj7+fv+F5zzk/G+yndJKEDenDhvRhQ/qwIX3YkD5sSB82pA8b0ocN6cOG9GFD+rAhfdiQPldv+B+52W45Vkd71gAAAABJRU5ErkJggg==;clipPath=inset(10.44% 16.67% 10% 15.78%);" vertex="1" parent="1">
                    <mxGeometry x="212.23000000000002" y="874" width="130.77" height="154" as="geometry"/>
                </mxCell>
                <mxCell id="42" value="" style="shape=image;verticalLabelPosition=bottom;labelBackgroundColor=default;verticalAlign=top;aspect=fixed;imageAspect=0;image=data:image/png,iVBORw0KGgoAAAANSUhEUgAAARwAAACxCAMAAAAh3/JWAAABAlBMVEUlMjgEm8YBi7kluOzo6Ogku/Hs7Ozu7u4Aqtu/298hLzUKHycaKjAwg6MlMje6vb4SJCspNz0uZnY2TlY1VWA3REh1en0vPUM7Sk8tkK4cKzIyQEYvgJkzfJQZjas0bX84TFOfoqMldow1WWVLVFgviqYchJ0scYQqmbgnpsrV1tZ8gYQmseI9R0yUmJkFHSbKy8wAnsp+k5jZ8vaIjI5cZGfCxMWrrq8ACxhnbnGZnJ4ooMMwgJ0tkrYnqNQpdY8maYMddpcNhK1tvtmgvcSltriu1d1YttUjXXE7QkMmTVsnRE2On6Ffc3iUq66nvcGGyd9ws8sAhLZWbHRqgolvmaamk2hZAAAIs0lEQVR4nO2bCXfauBaADRg7kZ0gA8bGBmJioCmLgQaThIRsM9OXdKZp3yz//6+8K8lmacjWN22CuV97DkYWHOvr1b2SkkoSgiAIgiAIgiAIgiAIgiAIgiAIgiAIgiAIgiAIgiAIgiAIgiAIgiAI8tYw5rz2o7w9XM8WeO5rP8rbw/XfC/Io5x5uvlwuN8uVMsq5D8p5BJTzCCjnEVDOwxArfwCcNg9QjmR5psCOXs1iU1BcLWeT1oZWYb/C8feEk2qhug9Uqw/I8WyL/ORnfDWsYq1Wa9VarXflA0g25dNTv1bjTSunFTH9s57105/ylbCKzVZrv7VfeVduVpqVSvnAb7UqFWhaKccwU9kdc1PscDmVb+S0Wg/Jcf1MJlu1NyTvvEzOrlnNZjIZ3/z5D/oarJbz4LQypyAne74hE4vLqUZyKlxOJc45K6oSpByInOxeskPHinALB4J8U5xUHBSjBt+M+yx8LJIzZXIISWpN9wpFgRe/egXBrCHqUfAWPsanVSZzbrsuWzC6ViJTs7kfBUghOtuqtvjb01p82OXXREOrt/ixHS6na/f8dxdnF3m7ZyZQjwmr4Eplv1UrHjTZPrNZbVXYyrhV8+E933jWKvvQ1FqWkxdydrYipkXvtYbw4zBh4CzxgpxyJKfFXdT8eFe+So5ld7mcrRmFBO5PuZzWi+UQ+112yU3efrUh/Di+M3Ik4xZS8qKbBKYcLufBnPPItDLNnbmbaSGRboi5X4NqBH+LUJhO4Q9UK7YbP4iq1en7PH9XO2jO5FhQvvfOs1tb5yBmOL0o9pK2FowPt4p5gb0nKEQNftzg+VFDfApm2vmdLp9T/q1p9mzTTVzY2BdnZzvfw/S8m4VkDG5StpXMHxYbveHWVib7HWQ4LNXs2QndN3A53cxKsqubF2Fuhkk8CuSrtVhO9p6KbDe11JQ9H96zxWvURby0SdDGyvA8g8lJgZxs5tzfyWRng2ezZlow503svWdD/l3sk5kWp1vdoR0Fjusl5qjd8hiuZU+HqWnVv7XN4lmqy7NP5jy1s+eZtmcWqinmI9sdnkEPj9Wn1LnIUN3hjm/at0XYbLLf3bFs/nWvPap/A8v15rBzCXEYIS4Ks4a46ZsG0ckTbZ7tLWImYG7tSrsCyb5Mp9Opl5OOKJrxV/GvSxamn/4eO7GbyyRuNGdY3vXL5cRq0ld2Asv4AvbVi+XM3FwnIwU/CFk5r3759eP7J9VAwkn0pAIM+/qeneFvzpePT6pJ+0l3A/PqZoUcg/z6pJubRJ7eLGPwrDO3MxymUl9/+/KfJ9RshBvIOgU+WLACWlLTi5vbKTf0qBqYUxvgBrCL/qdPN8CnT78b1l9/TJ8KGqhTyTwRXYHhfb77APxx92V7+/Dw8OsTZtLpCzv5uTjG8u62Iw4Zw0fNpK9v7GSvb5ax3A/bcw4/ph/yEoXNhkwpAbHczwt2tv/752ovwFVxo8KGY7iFu2fYuSpsnhpg1/3985fH7VxfgpqNmlFzDNf9PI+er+llPVeXRTvhe/DHAT2Fv+8+xsEzi5irS79gb2zQzLFcEPTX3x8+3N3d/XN1eXlzU2T/kTEJx5//CgYTxDCZlaT+Ltv/AfnmFUHuQTTtmf3oD36StwfpjXPOc/qFuUD/4U/zxqCBqpaeMWotpyqNTUtBdKI8U44io5wH2Cw5RKfUIUtyHJ3qzr1OlCuZyXHIvXvz7sRJgj+dNjpBULKoNpNDSTgKRiGZD5jQXmdSH4VUn8kh9KThiHtWp14PQjqvYYRKYSlc+6xN+qW2qiqKquSsQMhx9IkMTaoq10kUPVpjzDupbegg5BA9p6rs93B06wg+DTfbo34kk/aO4BvUk+fUvjcMcXKqLLPByYo8lpkcp9EWTbKsthsikkbsvsqbDMLl6HSsykwOPZFn98YGt0M7rLuidtY8dPpsiO36aJSD8chMDjFhsOog6AQDFa7YcLURu6p3OhPQ5ojI4W46VNJDuKfkOqUA7ikDNrNE99zRuruBpY2sBBrVab83ULgcyl7DPmsqQQCNKYQSxEHO0XRI0g2QxeTYYzDY0SRiQJ9BT9Md3l2tQ3ema2xpdM3dEAvGE/T5taODFbWklWBoDZFaKVhRT3QKUTWIcjMrQUxOG+6M+qz8q3Jb1DWnP5bhWgK7Sk5b/1Kld2Box9Ebp8ci5xhMTOItFkwQJdeXoL2xkFuZHFm4kfQ23OMh4lhcGCUNyFh0/d1IFOrMaBb9/TFUq+O2LPdm6xcXLBzDaAeLO1IuR7ghNtjlYUYb3I3GhCtHz9vAvm1gmGo4iwm+CDyG0c6jRIPA0E5gtHT5U7LC3UgO3BszE9oJi6YQLml9/csUh8uZzQA2rGfLCXkLk5MDI/0RNLV5quLfkgQ5bFqVlqZVeAwB4H47rUR0xPBppZwwE6THphXR6lDXB5JYEyVFDssP4zghE5aQSR+CaRSroJCQx30CKnoLGVYkZBE7LCGHfVhIqrloL5UYObyUd0QpJ30owWNNh1Iu98Qs0k2WeHWIr1kpJySOHBE7bKHUZmuAej/aaSZGjlgEjmC9pmsGzySOxBeBJ30Kq7oGVK42ISykYKHH1oV6wxKLwLAt8g5xoA/QOYZ7vN4nR47UZ//q7aDUqbNNQ6CJ5Q7skkalDg8QtoihYj8wWtw+sFWNDC6dkM2xQWcE9/jkS5AcYgz4LlNlO8WA5xo9FDtJ1iSLoqRN4k7zjafE7BjRxlMW98JkyZEIDWR+4KAOwigP62ZO5U3KkRWNMjrXUFR5RCXtSFVMQixoYnWN9uIjiw4v5cH6n1XMofQkqE9GtjYbEaFGZ1KflIz5LkDXGqN6PYCNFkvjARs9cSYiQgiVSvX6JIx2mrvBKDFuAIdSqi/thvi55/I5J+tExahJ9Eqdpe5xz3XfjiMIgiAIgiAIgiAIgiAIgiAIgiAIgiAIgiAIgiAIgiAIgiAIgiAIgqwb/wMXNCkUnLwDuAAAAABJRU5ErkJggg==;clipPath=inset(21.75% 32.39% 21.75% 32.39%);" vertex="1" parent="1">
                    <mxGeometry x="538" y="886.5" width="129" height="129" as="geometry"/>
                </mxCell>
                <mxCell id="43" value="" style="shape=image;verticalLabelPosition=bottom;labelBackgroundColor=default;verticalAlign=top;aspect=fixed;imageAspect=0;image=data:image/jpeg,/9j/4AAQSkZJRgABAQAAAQABAAD/2wCEAAkGBxIHERIQExIWFRUVDRUXFRcYGBcTFxUXFR8WFxUWHB0YHSggGRwlJRMWIjEhJSorLi4uGB8/OzUsOCotLisBCgoKDg0OGw8QGjQgHyUzLSs3Lis3KzgvMzc3LS03Nzg3MjAuNzE3LTEvLS8zKzIzNzcrLy0vLTc1MDMtLzUtN//AABEIAOEA4QMBIgACEQEDEQH/xAAcAAEAAgIDAQAAAAAAAAAAAAAAAwcEBgEFCAL/xABMEAABAwIDAwcHBwkGBgMAAAABAAIDBBEFEiEGBzEIE0FRcXSyIjIzNGGBsRQjQnKCkaEVRFKTwcLD0tNDYqKz0fAWU1Rjg5IXJHP/xAAZAQEAAwEBAAAAAAAAAAAAAAAAAQQFAwL/xAAlEQEAAgEDAgYDAAAAAAAAAAAAAQIDBBEhBUESMlGhsfATIjH/2gAMAwEAAhEDEQA/ALrREQEREBERAREQEREBERAREQEREBERAREQEREBERAREQEREBERAREQapt7ttHsU2F8kL5RK9zRkIBblAPTx4rV4t+VC7jTVQ7BEfjIFg8o30FD3iXwtVIxoPREG+jDZeLKln1o2HwSFZTd7+FH+0lHbDJ+wLzoxSFB6KG9zCP+oeP/AAzfyLg73cIH5y79TN/IvOD1jvQekn748Jb/AGzz/wCKT9rVjyb68LZwMzuyM/tIXm56jQeh5N++HjhBVH7MQH+YsaXf1SjzaSY9pY34OKoFEF4z7/mjzKAn60wb8IysV+/6U8KBg7ZXH4MCphEFvv37VrvNpaYdvOu+DgojvsxJ3CKlH2JT/FVXMWQxBZY3zYmfoUv6uT+quDvmxMfQpf1cn9VV41cPQWGN9mJN4xUp+xKP4qkZv1rm+dTU57OcHxcVWL1A9BbjN/kzeNFGeyVw/dKyoN/wPn0FuybN8WBUk5fKC/od/VKfOpJh2Fjvi4LLj37Yc7jBVD7ERH+avOyIPS8e+rCn8XTN7Yj+wlbDsrtzRbVvfHTSOc5keZwcxzLC4HSNdSvI6t7k3+t1fc2+NqC/0REBERAREQU9yjfQUPeJfC1UjGru5RvoKHvEvhaqRjQTsUhUbFIUEL1jvWQ9Y70ED1GpHqNAREQEREGSxZDFjsWQxBO1cPXLVw9BA9QPU71A9BA5fK+nL5QEREBW9yb/AFur7m3xtVQq3uTf63V9zb42oL/REQEREBERBT3KN9BQ94l8LVSMau7lG+goe8S+FqpGNBOxSFRsUhQQvWO9ZD1jvQQPUakeo0BERAREQZLFkMWOxZDEE7Vw9ctXD0ED1A9TvWRhuC1GL5uZjLg3ibhoB6BdxAv7FFrRWN5nZNazadojd1Ll8qespn0b3RyNLXNNiDoR/vrUClH8EREBW9yb/W6vubfG1VCre5N/rdX3Nvjagv8AREQEREBERBT3KN9BQ94l8LVSMau7lG+goe8S+FqpGNBOxSFRsUhQQvWO9ZD1jvQQPUakeo0BERAREQZLFkMWOxZDEE7Vw9ctXD0ED1bWydKKKhgHDNCJHHhcyeWSfcQOwKpzGZiGji4gDtOg+KtfbCQUFBOBwEIjHY4tj+BWb1D9vBjjvP35aPT/ANfHkntH34dJvFwX5ZEKlg8uIeX/AHo+n3tOvYXKsVb2yGNflqn8s3kjsyQH6X6LvtAa+0FdP/8AH0Je4mV+QuJa1oALR0DMb3t12XjT6mMETiy9v46ajTTnmMuLurlFbVHsdR01vms563uLvwFh+Cx9sMIpKejkfzUcbmgc25jQxxeSLN0HlX10PRc9C7V6hjteKxE8uNun5K0m0zHCrVb3Jv8AW6vubfG1VCre5N/rdX3Nvjar6gv9ERAREQEREFPco30FD3iXwtVIxq7uUb6Ch7xL4WqkY0E7FIVGxSFBC9Y71PI8N4lQP1QQPUakeu62n2TqNmG07p8g+URF7WtJLmWy3a+4FnDONBdB0KLb6PYR9VR/KxURteaKapbAQ/OYYHFr3ZgMo4aDpv22j2E2Jk2vM1pBE2Nmji3NnlcCWRAXGpDHG/Rbhqg1RF3+yez7cadNJNKIaaniElRLbMQ0kNYxjfpPeSAPf2GWDCqTF8QpaakdUGGaaJjjKGNlaXOyyHyLtsBrfVB0jFkMW8Yxu+OAwYnUTMe1kUkbKImSNzpM8hYHPDDxygGxA4+xfezGzdM7C34hPDzrvlEwaDU/JQIoWNJcAATI7NmGUa8EGp4ZQyYlI2KJuZx6OAAHEknQAda3Oh3d3sZ5+1sY/fd/Kuh2IxdmDVGaTzHxZHOtct1aQ6w6PJ1t1+xWo2RlazM14cxw0cx3wcw3B7CszXajLjttXiPVp6HT4sld7cz6OkiwGgwMCQsjbY3D5XBxBHAgvNgexart/tHBXwCCGTOeeaXkB2XK0O0uRY6lvC/BZm0OwZmLpYpyTYkidxdp0/OcR7x71XlTA6HiNCXZTxa4NJaS1w0cLgi400UaXDTJaMs3m0warNfHWccUisSlwbGJcEkMkdrlhaQ65aQeuxHAgFdmNp6/FpGxRvIc82a2Nob+PEdt9Frjlvm7MRETafPAjU/8s20HvBv2tVrUxSlZyzXeYVtNN72jHFtobLhtK3AoHPmlLnBuaWV5LvcL621sBxJ9pVb7UbQvx2S+rY2n5tn7x/vH8F3u8uoma+OM6QlmZtvpPGjr+0XFvrLR1x0WGNvzW5mfZ11mbn8NeIj3Fb3Jv9bq+5t8bVUKt7k3+t1fc2+Nq0FBf6IiAiIgIiIKe5RvoKHvEvhaqRjV3co30FD3iXwtVIxoJ2Ky91u7kbTj5XU3FMHEMYDldM5ps7UatYCCNNSQeFta0avVu7wsdhdBzfm/IYv/AGDQH39ubNf23QZFHs7QUAEUdLTs080RsuR1m4ue0rRN5u7KlxGCWqpo2U88cbnkNyxRShupDho1ruNn6a8dOFX7xsJq9nMTlkke/PJM6WCoBILmk3GV3Q5lw0t6LDoIWLtjt/W7VsZFM8Niaxt2M8lsj2gXkf8ApEkXA4DTtQdNspVU1FVxz1Qc6KK8mRouZHt1jYbkAAm1z1A9a7vbXbSLauliaYTFOytlfo4vYWTAF5zONw4uHm2sANOpdTsrsnVbWS81Ts0HpJHaRxj+8es9DRqfvVvYTuUoqVo5+WWZ9tbERM9wF3f4kFW49ttNWU8FFBJJHTsoIopWeS3nJG35x1265STwvwHBZ+AbxP8AhyKjgp6ZhZFLzs5kDXPlldo5zHW+as0lgOpsVYGNblqOqYfk0kkMltMx52M+wg+UO0HTqKpTH8Fn2fnfTTsyvae0OB4Oaelp6/2oO0wLaoYRLVXpo5aaquJaZ5IGUOL4wHNALXMNrED3DQiKh2m/Jle3EIKeKPI4mOHynRs8gxjpzOI8699Ss/d5sHPtpKQ083Aw/OzEXA6mNH0nnq6Bqei9/wCC7A4TsvGCYIiRa8tRkkcSOm7/ACWn6oCDzXDjcjaR9EMvNyVbZ3mxzuc1paGk3tk1va3HpXaxbVziibh/N05ia2QNc6IPlZzpLnlryfJJJ4gDgOpekqvZnDNo4zenppWkEB7GsuOvK+PVp7CqB3lbDO2MnblJfTy3MTzxaRxjcf0hcEHpHYUGptWRRYlJhrs8Mpjd02Oh7QdHe8K190G7qHE4RiFYznGvceYid5ha0lpkePpXINmnSwvrcW3va2LD8LoavJFStfFRS5GBsTSHBjsjQALg3somImNpTEzE7w07dlg423hdWVxMjI6kxsgAyQvLGsdzjxxkN3kWJyjKdFpG/Wdr8VMbQAIaOGMAAAAWdIALdHzit/cvS/JcGput7pn/AHyPAP3ALWaTYH/ibF6zEapv/wBdtYWxRkW590Noszh/ywYz9bs4xWlaxtWNk2ta072ndVcGwlQ+ihrpPm2T1kUUYcCSWSB1pj1MJDQOvNfha/NFglZs1OybmzIxps8xnPmY7Rwy6O9uotcBWRvp24hpmfk+G0kwmjfIR5sPNOD2t0+mcoBHQL9K1fDtuqar0kDoT7fLZ/7AX+8KtqrZa+SvijvCzpa4rea3hntLsNp8LGN0rmt1cBzkR6yBcD7QJHvHUqhKvCOuieznBKwsAuXBzco7TfRU5jczKmomfH5jpnlvRoSTf2X42VbptrbWpMcQsdSrXet4nmWCre5N/rdX3NvjaqhVvcm/1ur7m3xtWozF/oiICIiAiIgp7lG+goe8S+FqpGNXdyjfQUPeJfC1UjGgnYrP3RbfDAXChqXWp5Hnm3nhA9x1B/7bjrfoJvwJI0DA8EqcdfzVNC+V3TlGjfrONmt95Cm2lwGbZyd1LOAHhjXeSczXNeLggkC4vdvDi0oPT21mzcG1VM6nmGh1Y8edG/oe09evvBIXl3HNlajCa8Yc8AyumYyM6hsglIbG8ew39xBHQrq3FbSTYtTzUst3Cl5sRyHU5H5wIyenLk0PUR1LN2roW1eP4OQBmZT1T39eVg+bv7MzjZBntipd2+GHT5uCO7iPPmldYX+s5xA6gLdAVDY/vPxLGJC5s7oGX8mOI5A0dALh5Tj7SfcFbe/ylkqcLDmAlsdZG+S36GWRlz7A57f9hecEF07n94FRidR8gqn87njcYZHWzhzBmLCR5wIDjc63HTfTK3/4SKplFMwXlNQYABxcHjM0e4tNvrFdBuJ2bkqao4g5tooWPbG4/TkeMpt1gNLrnrIWxb3doY4K/C6YuAENZFUTHoaMzQy/uDz2EIN6p44N3WFE2uymp8zugyymwJuel73Aey46l5l2l2iqdppnT1Mhe4k5RwZGD9Fjfoj49NzqvT28XA5NosNqqWL0jmNcwaDM6NzZAzUgeVktr0kLyhU076R7o5GOY9ps5rgWuaeog6goN33P45JguJ07GuPN1EohlZ9F2fRhI62usb8ePWVcm/eJj8Je93GOphcz2EuyG32XuVT7udlKiCvwueaMxslrHGIPu17+YY6UvDTqG6N1PG+is3f68y0NNTt4z4lGz/C+1veWoNs2Vj/I2E0odoYsMjLu1sYc78bryk93OfOO1cfKcTxJOpN+vVeqt4MgocIrraWw+SMfbbzY8QXlkxGchjdXPIa0dZdoB95CD1ZsRS/IcNoYzxbQQ37S1pd+JK+doOexShlNDM1sktNmgk85pzAOFj0ZhoHdFwehZePTjCaKokHCGikcOjzGEj4KpdxO2Odv5KmdqAXUxJ4ji+H3auHszdQQUlVsfG97ZAQ8PcHh18wcD5QN9b3vdQq6d+uxdj+VIW8bCpaOjobN8Gu+yesqlkHK4REBW9yb/W6vubfG1VCre5N/rdX3Nvjagv8AREQEREBERBT3KN9BQ94l8LVSMau7lG+goe8S+FqpGNBce4na+Ogz4dO8MEkueBzjYF5sHxXPAmwI6zm9itXafZGj2pDRUw5yzzXAuY9oPEZmkG3sOi8nNF13lJtXX0LMkdbUNbbQc64gDqFycvuQej8uH7v6Q2yU0IN+kukdb23dI82HWdPYq43b42/bHHauvcMrGYeWRMPFjC9mQadOjyfa4qocRrpcRdnmlfK79KR7pCPYC4mw9itvk60pAr5ugugjHa0SOd42figtaonhme6mc5jnmLM6IkEmN2Zty08WnK4dWi1GTdhhJk5z5IL5r5c8gZf6ua1vZwVUb8sQLsYdkcWuhp4WXF2kEjnNCP8A9Vpk20dbO3I6rqHN/RM0hb9xdZBf21+31HsbFzEPNvma3LHBHbJHYaZ8ujGjTyeJ/Eed8TxCTFJZJ5XF8kjy5zj0k/ADgB0ABYqIL43ab3IDDHS17+bkY0NZOblkjRo3ORq13tOh6bKxn7WYUbSOraMkDQmWEu92t15BRB6FxTeRhlTi9JPz55mlpKkc4I5HNMs3NtDW2aXHRjtbW9q6feFt1Q7Q1mFOilc6GnrOdnJjkFgHREANcAXXDHjTrVNsWQxBdm8jeTQ7QYfNS0z3mSR8XGN7Bla9j3akW4N/FVRgc8dNV00kptGyrie8gZjlY5rnaDjoOCwWrh6C79u96WH4ph1XBBI90ssGRrTHIy+chrtSLCwLj7lQ9NVPoZGSxuLHxvDmOHFrmm4K+nqB6D0dg+8fDcdpGfKZoo3yQls8Ml7XN2vHCxadSNeBHSqD2wwyHCqqSOnnZPCTmiexwfZribMdb6TeHtsD0rpnL5QEREBW9yb/AFur7m3xtVQq3uTf63V9zb42oL/REQEREBERBT3KN9BQ94l8LVSMau7lG+goe8S+FqpGNBOxSFRsUhQQvXY4PtVW4Ax0dNUPia5+Zwbl1dYC+oPQAuuesd6D6xXEJcUlfPM8ySPIzOdxNgAOHsAHuWEpHqNAREQEREGSxZDFjsWQxBO1cPXLVw9BA9QPU71A9BA5fK+nL5QEREBW9yb/AFur7m3xtVQq3uTf63V9zb42oL/REQEREBERBT3KN9BQ94l8LVSMau7lG+goe8S+FqpGNBOxSFRsUhQQvWO9ZD1jvQQPUakeo0BERAREQZLFkMWOxZDEE7Vw9ctXD0ED1A9TvUD0EDl8r6cvlAREQFb3Jv8AW6vubfG1VCre5N/rdX3Nvjagv9ERAREQEREFPco30FD3iXwtVIxq7uUb6Ch7xL4WqkY0E7FIVGxSFBC9Y71kPWO9BA9RqR6jQEREBERBksWQxY7FkMQTtXD1y1cPQQPUD1O9QPQQOXyvpy+UBERAVvcm/wBbq+5t8bVUKuHk3xONTWPt5IpWNJ6AXOuB78jvuQX4iIgIiICIiCnuUb6Ch7xL4WqkY16T3sbFz7ZxU7IHxMMUr3HnC4A5gAAMrT1Ks3blcTj4Opndkjx8Ywgr9ikK3d+6PFo/7KJ31ZmfvWUEu6/F2fml+yWD+dBpL1jvW6u3Z4v/ANE79bB/UULt2OLn8yd+sg/qINJeo1urt1uMH8yd+sh/nUse6PGH/mwHbLF+xyDRUVixbl8VfxbE3tk/0BWXDuMxJ9ry0zR9eQn/AC0FXorhh3CVJ86siHYxzviQsuPcAT52IgdlPf8AihBTjFkMV1U+4aFnn10h+rExnxc5ZbNxlI3jV1B7BEP3SgpFq4er1G5CiH5zVffD/TQ7kKI/nNV98P8ASQUG9QPV+ybjKQ8Kuo94iP7oWHUbhYneZXSD60TXfBwQUO5fKuuXcC8ebiAPbBb+KVhzbhapvm1cR7Wub+0oKgRWhLuNxJvCSmP25Af8tYsm5XFWcGwu7JP9QEFdsYZCAASSbADUkngAvWG7XZgbKUMcBHzrhzk5/wC4+129jQA33e1U/sxu3xXZ6riqn0DKgRPzNj5+FgLh5hJJPA2PDiAvQOGvfLG172GN7mguYSHFhPFpLSQbdYQZSIiAiIgIiICIiAiIgIiICIiAiIgIiICIiAiIgIiICIiAiIgIiICIiAiIgIiICIiAiIgIiICIiAiIgIiICIiAiIgIiICIiAiIgIiICIiAiIg//9k=;clipPath=inset(25.11% 14.44% 34% 13.56%);" vertex="1" parent="1">
                    <mxGeometry x="313.0001476332721" y="596.1138061523437" width="225" height="127.77777777777777" as="geometry"/>
                </mxCell>
            </root>
        </mxGraphModel>
    </diagram>
</mxfile>